<svg clip-rule="evenodd" fill-rule="evenodd" stroke-linejoin="round" stroke-miterlimit="2" viewBox="0 0 2275 1175" xmlns="http://www.w3.org/2000/svg"><g fill="#a1d55e"><g fill-rule="nonzero"><path d="m41.515 947.055 87.71 87.681v138.825h-87.71zm334.633-186.569v413.693h-20.979l-61.956-61.928-103.942-103.943-60.018-60.045-87.738-87.682v-102.342h21.766l225.13 225.13v-222.883z"/><path d="m438.435 761.216h368.981v87.71h-368.981zm0 148.851h332.134v87.766h-244.396v176.374h-87.738z"/><path d="m1047.73 848.538c-66.196 0-119.895 53.671-119.895 119.895-.028 66.197 53.671 119.867 119.867 119.867 66.196.028 119.895-53.642 119.895-119.839v-.028c-.056-66.196-53.699-119.81-119.867-119.895m205.751 119.895c0 113.604-92.119 205.751-205.751 205.751s-205.779-92.147-205.779-205.751c0-113.632 92.147-205.779 205.779-205.779 113.576.113 205.639 92.175 205.751 205.779"/><path d="m1865.9 1086.47h221.422v87.71h-371.929v-30.192l3.145-4.325 33.899-46.452 4.915-6.769h108.548zm64.736-237.487h-215.243v-87.681h387.854l-19.07 26.147-40.021 54.822-133.573 183.002h-108.548z"/><path d="m1073.97 1073.96c-1.966.506-3.988.927-6.01 1.348l-.87.169c-1.714.28-3.455.561-5.196.786l-1.32.169c-1.629.196-3.258.365-4.887.449l-1.573.112c-2.078.141-4.184.225-6.319.225-2.134 0-3.876 0-5.813-.169h-.703c-1.713-.084-3.398-.196-5.111-.365h-.197c-3.735-.421-7.442-1.011-11.121-1.825l-23.311-36.988 18.789-25.417h54.906l19.098 25.585zm83.609-98.213c-.449 4.549-1.123 9.071-2.106 13.537 0 .168-.056.365-.112.589-.45 1.938-.927 3.932-1.461 5.87l-.224.73c-.562 2.051-1.208 4.129-1.91 6.123-1.489 4.213-3.23 8.369-5.196 12.385-.927 1.91-1.938 3.792-2.977 5.646l-.253.449c-1.039 1.882-2.134 3.679-3.314 5.477l-38.869 6.206-19.211-25.726 10.28-41.79h-88.889l10.307 41.79-19.07 25.754-39.01-6.234c-1.152-1.77-2.275-3.595-3.314-5.477l-.281-.421c-1.039-1.882-2.05-3.764-2.977-5.674-1.994-4.016-3.707-8.172-5.196-12.385-.702-1.994-1.32-4.016-1.938-6.123l-.196-.73c-.534-1.938-1.039-3.904-1.461-5.87 0-.196-.112-.393-.14-.589-.955-4.466-1.657-8.988-2.05-13.537l8.566-10.42h-17.104c-1.208 65.27 50.75 119.165 116.019 120.373 65.298 1.179 119.165-50.778 120.373-116.048.028-1.46.028-2.864 0-4.325h-16.964z"/><path d="m1479.58 1088.28c66.225 0 119.895-53.643 119.895-119.867 0-66.196-53.67-119.867-119.866-119.895-66.197 0-119.895 53.67-119.895 119.867v.028c.084 66.168 53.698 119.783 119.866 119.867m-205.75-119.867c-.028-113.632 92.118-205.779 205.75-205.779s205.751 92.119 205.779 205.751c0 113.632-92.118 205.779-205.779 205.779-113.575-.113-205.638-92.175-205.75-205.751"/><path d="m1479.57 906.629c6.32 0 11.431 5.084 11.431 11.319 0 6.263-5.111 11.346-11.431 11.346-6.319 0-11.43-5.083-11.43-11.346 0-6.235 5.111-11.319 11.43-11.319"/><path d="m1503.84 911.373c13.2 1.46 26.147 4.718 38.477 9.689 19.828 8.033 37.662 20.25 52.322 35.837l1.685 1.797c-3.679-44.346-32.298-82.682-73.751-98.803l-3.286 6.797c-5.982 12.273-12.694 24.181-20.165 35.612 2.191 2.64 3.791 5.757 4.718 9.071"/><path d="m1471.25 894.424c5.392-1.854 11.262-1.854 16.654 0 7.022-10.813 13.369-22.019 19.014-33.618l2.5-5.196c-19.548-5.111-40.134-5.111-59.709 0l2.527 5.196c5.617 11.599 11.993 22.805 19.014 33.618"/><path d="m1459.89 933.425c-1.994-2.471-3.51-5.308-4.409-8.369-30.95 3.876-59.568 18.424-80.969 41.173l-8.65 9.099h70.942c6.628-14.52 14.352-28.506 23.086-41.903"/><path d="m1584.7 966.229c-21.344-22.749-49.991-37.297-80.941-41.201-.927 3.089-2.415 5.926-4.409 8.397 8.706 13.397 16.43 27.383 23.058 41.903h70.942z"/><path d="m1416.86 921.029c12.33-4.971 25.249-8.229 38.477-9.69.899-3.314 2.527-6.403 4.718-9.071-7.499-11.431-14.211-23.339-20.193-35.612l-3.286-6.797c-41.425 16.121-70.044 54.485-73.751 98.804l1.713-1.798c14.66-15.559 32.494-27.804 52.322-35.836"/><path d="m1488.13 941.379c-5.533 1.994-11.599 1.994-17.104 0-7.077 10.925-13.453 22.243-19.098 33.927h55.328c-5.673-11.684-12.049-23.002-19.126-33.927"/></g><path d="m1394.48 135.201h77.599v77.599h-77.599z"/><path d="m204.964 243.216h75.464v76.195h-75.464z"/><path d="m204.964 445.749c-.112 113.154-91.809 204.852-204.964 204.964v75.465c154.777-.169 280.204-125.597 280.401-280.373v-91.585h-75.493z" fill-rule="nonzero"/><path d="m1954.32 242.711h77.599v76.672h-77.599z"/><path d="m560.456 538.398c-60.467 0-109.475-49.008-109.475-109.447 0-60.495 49.008-109.532 109.475-109.532s109.476 49.037 109.476 109.532c0 60.439-49.037 109.447-109.476 109.447zm872.826-218.979c60.439 0 109.476 49.009 109.476 109.504 0 60.467-49.037 109.475-109.476 109.475-60.467 0-109.503-49.008-109.503-109.475 0-60.495 49.036-109.504 109.503-109.504m521.034 219.569h-371.116c60.945-82.795 43.279-199.319-39.515-260.292-82.795-61-199.348-43.307-260.32 39.488-48.363 65.662-48.363 155.169 0 220.804h-572.794c60.832-82.907 42.942-199.432-39.965-260.264s-199.46-42.914-260.292 39.993c-60.804 82.907-42.942 199.432 39.993 260.264 30.388 22.3 66.842 34.882 104.56 36.005l-79.34 113.099h94.478l83.553-112.986h1300.67v.28h77.627v-261.19h-77.627l.084 184.799z" fill-rule="nonzero"/><path d="m2043.89 123.237c0 59.231 48.166 107.482 107.425 107.538 59.4.028 107.678-48.166 107.706-107.51 0-59.343-48.165-107.593-107.481-107.622-59.4-.028-107.65 48.194-107.65 107.594m107.566 123.181c-67.966 0-123.153-55.187-123.209-123.181s55.299-123.321 123.265-123.237c68.022.084 123.181 55.3 123.153 123.237-.056 67.994-55.243 123.181-123.209 123.181" fill-rule="nonzero"/><path d="m2185.8 136.184c.787-3.005 1.601-6.066 2.388-9.071 3.482-13.228 6.965-26.428 10.419-39.656.253-1.039.674-1.32 1.713-1.32 6.572.056 13.144.028 19.716.028h1.292v73.976h-13.79v-57.041c-.084 0-.168-.028-.253-.028-.252.843-.477 1.657-.674 2.5-4.465 17.693-8.931 35.387-13.34 53.08-.309 1.208-.702 1.657-2.05 1.629-3.848-.112-7.724-.084-11.599-.028-.927.028-1.32-.224-1.545-1.179-4.606-18.565-9.296-37.129-13.958-55.693-.028-.112-.113-.225-.337-.646v57.406h-13.874v-73.864h22.355c4.438 16.599 8.847 33.253 13.285 49.907z" fill-rule="nonzero"/><path d="m2103.45 160.183v-61.45h-21.878v-12.47h58.726v12.386h-21.794v61.534z" fill-rule="nonzero"/></g></svg>