<?xml version="1.0" encoding="utf-8"?>
<!-- Generator: Adobe Illustrator 25.0.1, SVG Export Plug-In . SVG Version: 6.00 Build 0)  -->
<svg version="1.1" id="Layer_1" xmlns="http://www.w3.org/2000/svg" xmlns:xlink="http://www.w3.org/1999/xlink" x="0px" y="0px"
	 viewBox="0 0 64 64" style="enable-background:new 0 0 64 64;" xml:space="preserve">
<style type="text/css">
	.st0{fill:#757576;}
</style>
<g>
	<path class="st0" d="M47.78,27.48c0.72,0,1.37,0.07,2.1,0.13V13.73c0-4.39-3.6-7.99-7.99-7.99h-5.11V3.78c0-1.18-0.92-2.1-2.1-2.1
		s-2.1,0.92-2.1,2.1v1.96h-14.4V3.78c0-1.18-0.92-2.1-2.1-2.1c-1.18,0-2.1,0.92-2.1,2.1v1.96H8.95c-4.45,0-8.05,3.6-8.05,7.99V41.1
		c0,4.39,3.6,7.99,7.99,7.99h19.45c-0.07-0.72-0.13-1.37-0.13-2.1C28.27,36.26,37.04,27.48,47.78,27.48z M5.09,17.86V13.8
		c0-2.1,1.7-3.86,3.86-3.86h5.04v1.96c0,1.18,0.92,2.1,2.1,2.1s2.1-0.92,2.1-2.1V9.93h14.4v1.96c0,1.18,0.92,2.1,2.1,2.1
		c1.18,0,2.1-0.92,2.1-2.1V9.93h5.11c2.1,0,3.8,1.7,3.8,3.86v4.06C45.68,17.86,5.09,17.86,5.09,17.86z"/>
	<path class="st0" d="M47.78,31.67c-8.45,0-15.32,6.87-15.32,15.32s6.87,15.32,15.32,15.32S63.1,55.44,63.1,46.99
		S56.23,31.67,47.78,31.67z M53.54,49.09h-5.76c-1.18,0-2.1-0.92-2.1-2.1v-7.14c0-1.18,0.92-2.1,2.1-2.1c1.18,0,2.1,0.92,2.1,2.1
		v5.04h3.67c1.18,0,2.1,0.92,2.1,2.1C55.64,48.17,54.72,49.09,53.54,49.09z"/>
</g>
</svg>
