<svg height="90.147" viewBox="0 0 102.567 90.147" width="102.567" xmlns="http://www.w3.org/2000/svg"><path d="m96.557 121h-90.547l-6.01 6.01v63.1a2.975 2.975 0 0 0 3 3h96.562a2.975 2.975 0 0 0 3-3v-63.1z" fill="#dfdfdf" transform="translate(0 -102.971)"/><path d="m99.562 61h-96.562a2.975 2.975 0 0 0 -3 3v15.029h102.567v-15.029a2.975 2.975 0 0 0 -3.005-3z" fill="#141414" transform="translate(0 -54.99)"/><path d="m351.284 251.566a6.737 6.737 0 0 1 -4.78-1.981l-13.522-13.522a6.76 6.76 0 1 1 9.561-9.561l8.742 8.742 22.264-22.264a6.76 6.76 0 0 1 9.561 9.561l-27.044 27.044a6.739 6.739 0 0 1 -4.782 1.981z" fill="#f00" stroke="#dfdfdf" stroke-width="5" transform="translate(-306.501 -174.941)"/><g fill="#a3d65c"><path d="m64 49.029a3 3 0 0 1 -3-3v-12.029a3 3 0 0 1 6.01 0v12.02a3 3 0 0 1 -3.01 3.009z" transform="translate(-48.78 -31)"/><path d="m184 49.029a3 3 0 0 1 -3-3v-12.029a3 3 0 1 1 6.01 0v12.02a3 3 0 0 1 -3.01 3.009z" transform="translate(-144.741 -31)"/><path d="m304 49.029a3 3 0 0 1 -3-3v-12.029a3 3 0 1 1 6.01 0v12.02a3 3 0 0 1 -3.01 3.009z" transform="translate(-240.702 -31)"/><path d="m424 49.029a3 3 0 0 1 -3-3v-12.029a3 3 0 0 1 6.01 0v12.02a3 3 0 0 1 -3.01 3.009z" transform="translate(-336.663 -31)"/></g></svg>