<svg height="90.147" viewBox="0 0 102.567 90.147" width="102.567" xmlns="http://www.w3.org/2000/svg"><path d="m96.557 121h-90.547l-6.01 6.01v63.1a2.975 2.975 0 0 0 3 3h96.562a2.975 2.975 0 0 0 3-3v-63.1z" fill="#dfdfdf" transform="translate(0 -102.971)"/><path d="m99.562 61h-96.562a2.975 2.975 0 0 0 -3 3v15.029h102.567v-15.029a2.975 2.975 0 0 0 -3.005-3z" fill="#141414" transform="translate(0 -54.99)"/><g fill="#f00"><path d="m70.015 229.029a2.994 2.994 0 0 1 -2.124-.88l-6.01-6.01a3 3 0 1 1 4.249-4.249l3.885 3.885 9.9-9.9a3 3 0 0 1 4.249 4.249l-12.02 12.02a3 3 0 0 1 -2.129.885z" transform="translate(-48.781 -174.941)"/><path d="m70.015 349.029a3 3 0 0 1 -2.124-.88l-6.01-6.01a3 3 0 1 1 4.249-4.249l3.885 3.885 9.9-9.9a3 3 0 1 1 4.249 4.249l-12.02 12.02a3 3 0 0 1 -2.129.885z" transform="translate(-48.781 -270.902)"/><path d="m340.015 229.029a2.994 2.994 0 0 1 -2.124-.88l-6.01-6.01a3 3 0 1 1 4.249-4.249l3.885 3.885 9.9-9.9a3 3 0 0 1 4.249 4.249l-12.02 12.02a3 3 0 0 1 -2.129.885z" transform="translate(-264.693 -174.941)"/></g><path d="m361.024 367.01h-12.024a3 3 0 0 1 0-6.01h12.02a3 3 0 0 1 0 6.01z" fill="#76787b" transform="translate(-276.687 -294.892)"/><path d="m64 49.029a3 3 0 0 1 -3-3v-12.029a3 3 0 0 1 6.01 0v12.02a3 3 0 0 1 -3.01 3.009z" fill="#a3d65c" transform="translate(-48.78 -31)"/><path d="m184 49.029a3 3 0 0 1 -3-3v-12.029a3 3 0 1 1 6.01 0v12.02a3 3 0 0 1 -3.01 3.009z" fill="#a3d65c" transform="translate(-144.741 -31)"/><path d="m219.159 211.881a3 3 0 0 0 -4.249 0l-9.895 9.895-3.885-3.885a3 3 0 1 0 -4.249 4.249l6.01 6.01a3 3 0 0 0 4.249 0l12.02-12.02a3 3 0 0 0 -.001-4.249z" fill="#f00" transform="translate(-156.736 -174.942)"/><path d="m226.024 361h-12.024a3 3 0 0 0 0 6.01h12.02a3 3 0 1 0 0-6.01z" fill="#76787b" transform="translate(-168.731 -294.892)"/><g fill="#a3d65c"><path d="m304 49.029a3 3 0 0 1 -3-3v-12.029a3 3 0 1 1 6.01 0v12.02a3 3 0 0 1 -3.01 3.009z" transform="translate(-240.702 -31)"/><path d="m424 49.029a3 3 0 0 1 -3-3v-12.029a3 3 0 0 1 6.01 0v12.02a3 3 0 0 1 -3.01 3.009z" transform="translate(-336.663 -31)"/></g></svg>