<?xml version="1.0" encoding="utf-8"?>
<!-- Generator: Adobe Illustrator 25.0.1, SVG Export Plug-In . SVG Version: 6.00 Build 0)  -->
<svg version="1.1" id="Layer_1" xmlns="http://www.w3.org/2000/svg" xmlns:xlink="http://www.w3.org/1999/xlink" x="0px" y="0px"
	 viewBox="0 0 64 64" style="enable-background:new 0 0 64 64;" xml:space="preserve">
<style type="text/css">
	.st0{fill:#757576;}
</style>
<g>
	<g>
		<g>
			<path class="st0" d="M57.63,47.74l-5.91-3.94l-5.26-3.5c-1.01-0.67-2.38-0.45-3.13,0.51l-3.25,4.18
				c-0.7,0.91-1.96,1.17-2.96,0.61c-2.21-1.23-4.82-2.38-10.58-8.15s-6.92-8.37-8.15-10.58c-0.55-1-0.29-2.26,0.61-2.96l4.18-3.25
				c0.96-0.75,1.18-2.11,0.51-3.13l-3.4-5.09l-4.05-6.08c-0.69-1.03-2.07-1.34-3.14-0.71l-4.67,2.8c-1.26,0.74-2.19,1.94-2.59,3.35
				c-1.28,4.66-1.53,14.93,14.93,31.4s26.74,16.21,31.39,14.93c1.41-0.4,2.61-1.33,3.35-2.59l2.8-4.67
				C58.98,49.81,58.67,48.43,57.63,47.74z"/>
			<path class="st0" d="M35.68,13.61c8.63,0.01,15.62,7,15.63,15.63c0,0.51,0.41,0.92,0.92,0.92c0.51,0,0.92-0.41,0.92-0.92
				c-0.01-9.65-7.83-17.46-17.47-17.47c-0.51,0-0.92,0.41-0.92,0.92C34.76,13.19,35.17,13.61,35.68,13.61z"/>
			<path class="st0" d="M35.68,19.12c5.58,0.01,10.11,4.53,10.12,10.12c0,0.51,0.41,0.92,0.92,0.92c0.51,0,0.92-0.41,0.92-0.92
				c-0.01-6.6-5.36-11.95-11.96-11.96c-0.51,0-0.92,0.41-0.92,0.92S35.17,19.12,35.68,19.12z"/>
			<path class="st0" d="M35.68,24.64c2.54,0,4.6,2.06,4.6,4.6c0,0.51,0.41,0.92,0.92,0.92c0.51,0,0.92-0.41,0.92-0.92
				c0-3.55-2.88-6.43-6.44-6.44c-0.51,0-0.92,0.41-0.92,0.92C34.76,24.23,35.17,24.64,35.68,24.64z"/>
		</g>
	</g>
</g>
</svg>
