<svg xmlns="http://www.w3.org/2000/svg" viewBox="0 0 64 64">
    <path d="M58.35 26.53h.98c1.08 0 1.95-.87 1.95-1.95v-7.81c0-1.08-.87-1.95-1.95-1.95H4.67c-1.08 0-1.95.87-1.95 1.95v7.81c0 1.08.87 1.95 1.95 1.95h.59a5.147 5.147 0 0 1 5.27 4.61 4.89 4.89 0 0 1-1.35 3.63 4.78 4.78 0 0 1-3.53 1.52h-.98c-1.08 0-1.95.87-1.95 1.95v7.81c0 1.08.87 1.95 1.95 1.95h54.65c1.08 0 1.95-.87 1.95-1.95v-7.81c0-1.08-.87-1.95-1.95-1.95h-.98a4.88 4.88 0 0 1-4.88-4.88 4.895 4.895 0 0 1 4.89-4.88zM43.71 38.25H20.29v-3.9h23.42v3.9zm0-9.76H20.29v-3.9h23.42v3.9z" fill="#757576"/>
</svg>