<?xml version="1.0" encoding="utf-8"?>
<!-- Generator: Adobe Illustrator 25.0.1, SVG Export Plug-In . SVG Version: 6.00 Build 0)  -->
<svg version="1.1" id="Layer_1" xmlns="http://www.w3.org/2000/svg" xmlns:xlink="http://www.w3.org/1999/xlink" x="0px" y="0px"
	 viewBox="0 0 64 64" style="enable-background:new 0 0 64 64;" xml:space="preserve">
<style type="text/css">
	.st0{fill:#757576;}
</style>
<g id="Solid">
	<path class="st0" d="M60.7,29.53L49.72,18.55c-1.14-1.14-2.98-1.14-4.12,0c0,0,0,0,0,0c-1.14,1.14-1.14,2.98,0,4.12l6.01,6.01
		H19.83c-1.61,0-2.91,1.3-2.91,2.91s1.3,2.91,2.91,2.91h31.78l-6.01,6.01c-1.14,1.14-1.14,2.98,0,4.12c1.14,1.14,2.98,1.14,4.12,0
		L60.7,33.65C61.83,32.51,61.83,30.67,60.7,29.53L60.7,29.53z"/>
	<path class="st0" d="M39.23,48.08c-1.61,0-2.91,1.3-2.91,2.91v2.91H11.1V9.27h25.23v2.91c0,1.61,1.3,2.91,2.91,2.91
		c1.61,0,2.91-1.3,2.91-2.91V8.3c0-2.68-2.17-4.85-4.85-4.85H10.13c-2.68,0-4.85,2.17-4.85,4.85v46.57c0,2.68,2.17,4.85,4.85,4.85
		h27.17c2.68,0,4.85-2.17,4.85-4.85v-3.88C42.14,49.39,40.84,48.08,39.23,48.08z"/>
</g>
</svg>
