<?xml version="1.0" encoding="utf-8"?>
<!-- Generator: Adobe Illustrator 25.0.1, SVG Export Plug-In . SVG Version: 6.00 Build 0)  -->
<svg version="1.1" id="Layer_1" xmlns="http://www.w3.org/2000/svg" xmlns:xlink="http://www.w3.org/1999/xlink" x="0px" y="0px"
	 viewBox="0 0 64 64" style="enable-background:new 0 0 64 64;" xml:space="preserve">
<style type="text/css">
	.st0{fill:#757576;}
</style>
<path class="st0" d="M58.9,30.58l-25-26.95c-0.44-0.47-1.06-0.73-1.71-0.73c-0.65,0-1.27,0.26-1.71,0.73L4.66,30.73
	c-0.63,0.67-0.8,1.63-0.43,2.47c0.37,0.83,1.22,1.37,2.15,1.37h6.64v19.59c0,2.16,1.73,3.92,3.95,3.92h2.07h1.34h0.45h0.89
	c1.48,0,2.68-1.17,2.68-2.61v-9.79c0-1.44,1.2-2.61,2.68-2.61h9.36c1.48,0,2.68,1.17,2.68,2.61v9.79c0,1.44,1.2,2.61,2.68,2.61h4.62
	c2.22,0,4.08-1.75,4.08-3.92V34.57h6.86c0.01,0,0.01,0,0.01,0c1.29,0,2.34-1.02,2.34-2.29C59.68,31.61,59.38,31,58.9,30.58z"/>
</svg>
