<?xml version="1.0" encoding="UTF-8" standalone="no"?><!DOCTYPE svg PUBLIC "-//W3C//DTD SVG 1.1//EN" "http://www.w3.org/Graphics/SVG/1.1/DTD/svg11.dtd"><svg width="100%" height="100%" viewBox="0 0 2275 1175" version="1.1" xmlns="http://www.w3.org/2000/svg" xmlns:xlink="http://www.w3.org/1999/xlink" xml:space="preserve" xmlns:serif="http://www.serif.com/" style="fill-rule:evenodd;clip-rule:evenodd;stroke-linejoin:round;stroke-miterlimit:2;"><g><path d="M41.515,947.055l87.71,87.681l-0,138.825l-87.71,-0l0,-226.506Zm334.633,-186.569l0,413.693l-20.979,-0l-61.956,-61.928l-103.942,-103.943l-60.018,-60.045l-87.738,-87.682l0,-102.342l21.766,0l225.13,225.13l-0,-222.883l87.737,0Z" style="fill:#a1d55e;fill-rule:nonzero;"/><path d="M438.435,761.216l368.981,0l0,87.71l-368.981,-0l0,-87.71Zm0,148.851l332.134,0l-0,87.766l-244.396,-0l-0,176.374l-87.738,-0l0,-264.14Z" style="fill:#a1d55e;fill-rule:nonzero;"/><path d="M1047.73,848.538c-66.196,0 -119.895,53.671 -119.895,119.895c-0.028,66.197 53.671,119.867 119.867,119.867c66.196,0.028 119.895,-53.642 119.895,-119.839l-0,-0.028c-0.056,-66.196 -53.699,-119.81 -119.867,-119.895m205.751,119.895c-0,113.604 -92.119,205.751 -205.751,205.751c-113.632,0 -205.779,-92.147 -205.779,-205.751c0,-113.632 92.147,-205.779 205.779,-205.779c113.576,0.113 205.639,92.175 205.751,205.779" style="fill:#a1d55e;fill-rule:nonzero;"/><path d="M1865.9,1086.47l221.422,0l0,87.71l-371.929,-0l-0,-30.192l3.145,-4.325l33.899,-46.452l4.915,-6.769l108.548,0l0,0.028Zm64.736,-237.487l-215.243,0l-0,-87.681l387.854,-0l-19.07,26.147l-40.021,54.822l-133.573,183.002l-108.548,0l128.601,-176.29Z" style="fill:#a1d55e;fill-rule:nonzero;"/><path d="M1073.97,1073.96c-1.966,0.506 -3.988,0.927 -6.01,1.348l-0.87,0.169c-1.714,0.28 -3.455,0.561 -5.196,0.786l-1.32,0.169c-1.629,0.196 -3.258,0.365 -4.887,0.449l-1.573,0.112c-2.078,0.141 -4.184,0.225 -6.319,0.225c-2.134,-0 -3.876,-0 -5.813,-0.169l-0.703,0c-1.713,-0.084 -3.398,-0.196 -5.111,-0.365l-0.197,0c-3.735,-0.421 -7.442,-1.011 -11.121,-1.825l-23.311,-36.988l18.789,-25.417l54.906,-0l19.098,25.585l-20.362,35.921Zm83.609,-98.213c-0.449,4.549 -1.123,9.071 -2.106,13.537c0,0.168 -0.056,0.365 -0.112,0.589c-0.45,1.938 -0.927,3.932 -1.461,5.87l-0.224,0.73c-0.562,2.051 -1.208,4.129 -1.91,6.123c-1.489,4.213 -3.23,8.369 -5.196,12.385c-0.927,1.91 -1.938,3.792 -2.977,5.646l-0.253,0.449c-1.039,1.882 -2.134,3.679 -3.314,5.477l-38.869,6.206l-19.211,-25.726l10.28,-41.79l-88.889,-0l10.307,41.79l-19.07,25.754l-39.01,-6.234c-1.152,-1.77 -2.275,-3.595 -3.314,-5.477l-0.281,-0.421c-1.039,-1.882 -2.05,-3.764 -2.977,-5.674c-1.994,-4.016 -3.707,-8.172 -5.196,-12.385c-0.702,-1.994 -1.32,-4.016 -1.938,-6.123l-0.196,-0.73c-0.534,-1.938 -1.039,-3.904 -1.461,-5.87c0,-0.196 -0.112,-0.393 -0.14,-0.589c-0.955,-4.466 -1.657,-8.988 -2.05,-13.537l8.566,-10.42l-17.104,0c-1.208,65.27 50.75,119.165 116.019,120.373c65.298,1.179 119.165,-50.778 120.373,-116.048c0.028,-1.46 0.028,-2.864 -0,-4.325l-16.964,0l8.678,10.42Z" style="fill:#a1d55e;fill-rule:nonzero;"/><path d="M1479.58,1088.28c66.225,-0 119.895,-53.643 119.895,-119.867c0,-66.196 -53.67,-119.867 -119.866,-119.895c-66.197,-0 -119.895,53.67 -119.895,119.867l-0,0.028c0.084,66.168 53.698,119.783 119.866,119.867m-205.75,-119.867c-0.028,-113.632 92.118,-205.779 205.75,-205.779c113.632,-0 205.751,92.119 205.779,205.751c0,113.632 -92.118,205.779 -205.779,205.779c-113.575,-0.113 -205.638,-92.175 -205.75,-205.751" style="fill:#a1d55e;fill-rule:nonzero;"/><path d="M1479.57,906.629c6.32,0 11.431,5.084 11.431,11.319c0,6.263 -5.111,11.346 -11.431,11.346c-6.319,0 -11.43,-5.083 -11.43,-11.346c-0,-6.235 5.111,-11.319 11.43,-11.319" style="fill:#a1d55e;fill-rule:nonzero;"/><path d="M1503.84,911.373c13.2,1.46 26.147,4.718 38.477,9.689c19.828,8.033 37.662,20.25 52.322,35.837l1.685,1.797c-3.679,-44.346 -32.298,-82.682 -73.751,-98.803l-3.286,6.797c-5.982,12.273 -12.694,24.181 -20.165,35.612c2.191,2.64 3.791,5.757 4.718,9.071" style="fill:#a1d55e;fill-rule:nonzero;"/><path d="M1471.25,894.424c5.392,-1.854 11.262,-1.854 16.654,-0c7.022,-10.813 13.369,-22.019 19.014,-33.618l2.5,-5.196c-19.548,-5.111 -40.134,-5.111 -59.709,0l2.527,5.196c5.617,11.599 11.993,22.805 19.014,33.618" style="fill:#a1d55e;fill-rule:nonzero;"/><path d="M1459.89,933.425c-1.994,-2.471 -3.51,-5.308 -4.409,-8.369c-30.95,3.876 -59.568,18.424 -80.969,41.173l-8.65,9.099l70.942,0c6.628,-14.52 14.352,-28.506 23.086,-41.903" style="fill:#a1d55e;fill-rule:nonzero;"/><path d="M1584.7,966.229c-21.344,-22.749 -49.991,-37.297 -80.941,-41.201c-0.927,3.089 -2.415,5.926 -4.409,8.397c8.706,13.397 16.43,27.383 23.058,41.903l70.942,0l-8.65,-9.099Z" style="fill:#a1d55e;fill-rule:nonzero;"/><path d="M1416.86,921.029c12.33,-4.971 25.249,-8.229 38.477,-9.69c0.899,-3.314 2.527,-6.403 4.718,-9.071c-7.499,-11.431 -14.211,-23.339 -20.193,-35.612l-3.286,-6.797c-41.425,16.121 -70.044,54.485 -73.751,98.804l1.713,-1.798c14.66,-15.559 32.494,-27.804 52.322,-35.836" style="fill:#a1d55e;fill-rule:nonzero;"/><path d="M1488.13,941.379c-5.533,1.994 -11.599,1.994 -17.104,0c-7.077,10.925 -13.453,22.243 -19.098,33.927l55.328,-0c-5.673,-11.684 -12.049,-23.002 -19.126,-33.927" style="fill:#a1d55e;fill-rule:nonzero;"/><rect x="1394.48" y="135.201" width="77.599" height="77.599" style="fill:#a1d55e;"/><rect x="204.964" y="243.216" width="75.464" height="76.195" style="fill:#a1d55e;"/><path d="M204.964,445.749c-0.112,113.154 -91.809,204.852 -204.964,204.964l0,75.465c154.777,-0.169 280.204,-125.597 280.401,-280.373l-0,-91.585l-75.493,-0l0.056,91.529Z" style="fill:#a1d55e;fill-rule:nonzero;"/><rect x="1954.32" y="242.711" width="77.599" height="76.672" style="fill:#a1d55e;"/><path d="M560.456,538.398c-60.467,0 -109.475,-49.008 -109.475,-109.447c-0,-60.495 49.008,-109.532 109.475,-109.532c60.467,0 109.476,49.037 109.476,109.532c-0,60.439 -49.037,109.447 -109.476,109.447Zm872.826,-218.979c60.439,0 109.476,49.009 109.476,109.504c-0,60.467 -49.037,109.475 -109.476,109.475c-60.467,0 -109.503,-49.008 -109.503,-109.475c-0,-60.495 49.036,-109.504 109.503,-109.504m521.034,219.569l-371.116,0c60.945,-82.795 43.279,-199.319 -39.515,-260.292c-82.795,-61 -199.348,-43.307 -260.32,39.488c-48.363,65.662 -48.363,155.169 -0,220.804l-572.794,0c60.832,-82.907 42.942,-199.432 -39.965,-260.264c-82.907,-60.832 -199.46,-42.914 -260.292,39.993c-60.804,82.907 -42.942,199.432 39.993,260.264c30.388,22.3 66.842,34.882 104.56,36.005l-79.34,113.099l94.478,-0l83.553,-112.986l1300.67,-0l-0,0.28l77.627,0l-0,-261.19l-77.627,-0l0.084,184.799Z" style="fill:#a1d55e;fill-rule:nonzero;"/><g><path d="M2043.89,123.237c0,59.231 48.166,107.482 107.425,107.538c59.4,0.028 107.678,-48.166 107.706,-107.51c0,-59.343 -48.165,-107.593 -107.481,-107.622c-59.4,-0.028 -107.65,48.194 -107.65,107.594m107.566,123.181c-67.966,0 -123.153,-55.187 -123.209,-123.181c-0.056,-67.994 55.299,-123.321 123.265,-123.237c68.022,0.084 123.181,55.3 123.153,123.237c-0.056,67.994 -55.243,123.181 -123.209,123.181" style="fill:#a1d55e;fill-rule:nonzero;"/><path d="M2185.8,136.184c0.787,-3.005 1.601,-6.066 2.388,-9.071c3.482,-13.228 6.965,-26.428 10.419,-39.656c0.253,-1.039 0.674,-1.32 1.713,-1.32c6.572,0.056 13.144,0.028 19.716,0.028l1.292,-0l-0,73.976l-13.79,-0l0,-57.041c-0.084,0 -0.168,-0.028 -0.253,-0.028c-0.252,0.843 -0.477,1.657 -0.674,2.5c-4.465,17.693 -8.931,35.387 -13.34,53.08c-0.309,1.208 -0.702,1.657 -2.05,1.629c-3.848,-0.112 -7.724,-0.084 -11.599,-0.028c-0.927,0.028 -1.32,-0.224 -1.545,-1.179c-4.606,-18.565 -9.296,-37.129 -13.958,-55.693c-0.028,-0.112 -0.113,-0.225 -0.337,-0.646l-0,57.406l-13.874,-0l-0,-73.864l22.355,0c4.438,16.599 8.847,33.253 13.285,49.907l0.252,0Z" style="fill:#a1d55e;fill-rule:nonzero;"/><path d="M2103.45,160.183l0,-61.45l-21.878,-0l-0,-12.47l58.726,0l-0,12.386l-21.794,-0l-0,61.534l-15.054,0Z" style="fill:#a1d55e;fill-rule:nonzero;"/></g></g></svg>