<svg height="26.64" viewBox="0 0 28.183 26.64" width="28.183" xmlns="http://www.w3.org/2000/svg"><g fill="#76787b"><path d="m28.183 24.571s0-.005 0-.008c0-1.38-1.507-2.567-4.357-3.432a25.028 25.028 0 0 0 -3.094-.708v-1.043h3.068a.55.55 0 0 0 .467-.842l-.806-1.289.806-1.289a.55.55 0 0 0 -.467-.842h-3.618a.551.551 0 0 0 -.55.55v4.589a42.1 42.1 0 0 0 -5.54-.353q-.635 0-1.261.018v-1.643h3.069a.55.55 0 0 0 .467-.842l-.806-1.289.806-1.289a.55.55 0 0 0 -.467-.842h-3.62a.55.55 0 0 0 -.55.55v5.4a33.174 33.174 0 0 0 -6.8 1v-1.587h3.07a.55.55 0 0 0 .467-.842l-.806-1.289.806-1.289a.55.55 0 0 0 -.467-.843h-3.622a.55.55 0 0 0 -.55.55v5.633c-2.507.847-3.828 1.97-3.828 3.263v.009 7.623s0 0 0 0v3.805c0 .813.551 2 3.179 3.027a27.11 27.11 0 0 0 7.292 1.486c1.171.1 2.389.147 3.621.147s2.45-.049 3.621-.147a27.112 27.112 0 0 0 7.287-1.49c2.627-1.029 3.179-2.214 3.179-3.027v-3.796s0 0 0 0zm-7.45-8.353h2.078l-.462.739a.551.551 0 0 0 0 .584l.462.739h-2.078zm-7.9-1.1h2.078l-.462.739a.551.551 0 0 0 0 .584l.462.739h-2.08zm7.586 18.882a.551.551 0 0 0 -.55.55v.806q-.791.116-1.656.2a4.124 4.124 0 0 0 -3.57-3.876v-2.461a41.384 41.384 0 0 0 5.226-.386v.744a.55.55 0 1 0 1.1 0v-.918a23.884 23.884 0 0 0 3.176-.765v6.471a21.4 21.4 0 0 1 -3.176.813v-.625a.55.55 0 0 0 -.55-.551zm-10.448 1.561q-.865-.085-1.656-.2v-6.528a41.364 41.364 0 0 0 5.226.386v2.467a4.132 4.132 0 0 0 -3.57 3.875zm-8.871-3.361v-5.74a7.424 7.424 0 0 0 1.7.973l.137.057v6.43c-1.193-.558-1.837-1.169-1.837-1.72zm12.99-4.077a31.37 31.37 0 0 1 -10.409-1.523 5.035 5.035 0 0 1 2.752-1.517 27.605 27.605 0 0 1 7.659-.957 27.605 27.605 0 0 1 7.659.957 5.035 5.035 0 0 1 2.749 1.517 31.37 31.37 0 0 1 -10.408 1.522zm-10.052-.229a23.876 23.876 0 0 0 3.176.765v6.519a21.4 21.4 0 0 1 -3.176-.813zm21.208-.4.137-.057a7.425 7.425 0 0 0 1.7-.973v5.736c0 .551-.643 1.162-1.836 1.721v-6.43zm-20.317-11.276h2.078l-.462.739a.55.55 0 0 0 0 .584l.462.739h-2.078zm-.252 5.966a33.838 33.838 0 0 1 9.415-1.184 33.836 33.836 0 0 1 9.415 1.18c2.634.8 3.574 1.752 3.575 2.377v.006c0 .508-.565 1.072-1.565 1.588-.442-.842-1.612-1.567-3.448-2.122a28.714 28.714 0 0 0 -7.977-1 28.717 28.717 0 0 0 -7.977 1c-1.836.555-3.006 1.28-3.448 2.122-1-.516-1.562-1.08-1.565-1.588v-.006c0-.626.942-1.578 3.575-2.377zm-3.577 13.816v-1.9a8.03 8.03 0 0 0 2.078 1.129 26.337 26.337 0 0 0 6.787 1.441v2.692c-5.565-.55-8.865-2.116-8.865-3.362zm9.966 3.455v-3.681a3.025 3.025 0 1 1 6.049 0v3.677c-.984.069-2 .1-3.025.1s-2.04-.035-3.025-.1zm16.016-3.455c0 1.25-3.3 2.815-8.865 3.362v-2.696a26.337 26.337 0 0 0 6.783-1.441 8.03 8.03 0 0 0 2.082-1.125z" transform="translate(0 -14.016)"/><path d="m362.016 332.436a.55.55 0 1 0 -.218.678.556.556 0 0 0 .218-.678z" transform="translate(-341.089 -314.587)"/></g></svg>