<svg height="290.446" viewBox="0 0 361.893 290.446" width="361.893" xmlns="http://www.w3.org/2000/svg" xmlns:xlink="http://www.w3.org/1999/xlink"><radialGradient id="a" cx=".444" cy="-.588" gradientTransform="matrix(.159 0 0 .701 .373 9.081)" gradientUnits="objectBoundingBox" r="4.175"><stop offset=".106" stop-color="#38cd11"/><stop offset="1" stop-color="#113c06"/></radialGradient><radialGradient id="b" cx=".555" cy="-.59" gradientTransform="matrix(.159 0 0 .701 .467 9.08)" gradientUnits="objectBoundingBox" r="4.175"><stop offset=".106" stop-color="#5bff25"/><stop offset="1" stop-color="#1e6805"/></radialGradient><radialGradient id="c" cx=".5" cy=".5" gradientTransform="matrix(.023 0 0 .663 .48 -.262)" gradientUnits="objectBoundingBox" r="21.043"><stop offset=".106" stop-color="#1a6d00"/><stop offset=".608" stop-color="#0c3100"/></radialGradient><linearGradient id="d" gradientUnits="objectBoundingBox" x1="-100.758" x2="-99.936" y1="-65.604" y2="-65.604"><stop offset="0" stop-color="#700"/><stop offset=".278" stop-color="#f00"/></linearGradient><linearGradient id="e" gradientUnits="objectBoundingBox" x1="-165.821" x2="-164.781" y1="-75.791" y2="-75.791"><stop offset="0" stop-color="#773a00"/><stop offset=".278" stop-color="#f90"/></linearGradient><linearGradient id="f" x1="-204.973" x2="-203.933" xlink:href="#d" y1="-75.791" y2="-75.791"/><linearGradient id="g" x1="-166.699" x2="-165.833" xlink:href="#e" y1="-71.379" y2="-71.379"/><radialGradient id="h" cx=".5" cy=".5" gradientTransform="matrix(1.009 0 0 -1.009 .07 62.674)" gradientUnits="objectBoundingBox" r=".495"><stop offset="0" stop-color="#f7a27e"/><stop offset="1" stop-color="#f2bc89"/></radialGradient><radialGradient id="i" cx=".5" cy=".5" gradientTransform="matrix(-1.009 0 0 -1.009 122.137 62.674)" r=".495" xlink:href="#h"/><path d="m1591.416 418.3-66.65-51.778h19.362l83.135 51.778zm-71.9 0-33.616-51.782h19.454l50.12 51.778zm-217.287 0 66.213-51.778h19.431l-49.728 51.778zm164.565-51.778 17.359 51.778h-37.066l-.345-51.778zm-39.437 0-16.184 51.778h-35.961l32.692-51.778z" fill="url(#a)" fill-rule="evenodd" transform="translate(-1265.37 -136.305)"/><path d="m1481.683 366.518 66.65 51.778h-35.933l-50.12-51.778zm-5.249 51.778h-35.363l-17.359-51.778h19.109zm-144.305 0h-37.066l49.729-51.778h20.03zm52.146-51.778h19.385l.34 51.782h-35.91zm-125.128 51.782h-36.767l83.111-51.778h19.868z" fill="url(#b)" fill-rule="evenodd" transform="translate(-1222.287 -136.305)"/><path d="m1537.761 384.127h-11.7l15.632 11.788h13.583zm-.368-.23-7.943-5.341h-32.784l26.545 26.568h45.789l-13.215-8.887h-14.755l-16.23-12.337zm-16.968 5.687q.3.254-.161.437a3.722 3.722 0 0 1 -1.358.184 8.352 8.352 0 0 1 -1.773-.184 2.642 2.642 0 0 1 -1.151-.437q-.276-.253.184-.437a3.72 3.72 0 0 1 1.358-.185 7.932 7.932 0 0 1 1.727.185 2.867 2.867 0 0 1 1.174.436zm2.187-15.609-.9-.622h-2.809a4.9 4.9 0 0 0 1.52.414 14.059 14.059 0 0 0 2.189.207zm-21.043 10.425a7.757 7.757 0 0 0 -1.059.345q-5.457 1.888-2.947 4.766 2.693 3.108 12.847 5.479 1.013.231 2.026.437zm-1.888.161q.737-.254 1.566-.483l-5.641-5.733h33.521l-6.193-4.167a22.28 22.28 0 0 1 -2.924-.277 6.153 6.153 0 0 1 -1.911-.553h-87.808l.069 9.348a73.789 73.789 0 0 1 17.359 1.864q8.058 1.98 9.094 4.95 1.1 3.223-6.492 5.687-7.874 2.556-19.845 2.6l.138 19.339h150.086q-1.082-.9-.3-1.543a5.322 5.322 0 0 1 3.108-.737l-13.882-9.324h-47.226l-9.554-9.693q-1.5-.3-2.97-.645-10.567-2.463-13.33-5.687-2.551-2.962 3.135-4.943zm87.233 32.577-2.763-1.773a3.907 3.907 0 0 0 -2.256.6q-.622.483.184 1.174zm-64.647-43.973 66.834 44.5h-318.471l66.812-44.5zm-181.441.184h-2.832l-.875.622a14.432 14.432 0 0 0 2.187-.207 5.175 5.175 0 0 0 1.52-.412zm-1.128.553a22.272 22.272 0 0 1 -2.924.277l-6.193 4.167h33.544l-5.664 5.733q.829.23 1.566.483 5.686 1.98 3.131 4.95-2.763 3.223-13.307 5.687-1.5.345-2.97.645l-9.554 9.693h-47.219l-13.883 9.324a5.27 5.27 0 0 1 3.085.737q.783.644-.3 1.543h150.084l.138-19.339q-11.972-.046-19.846-2.6-7.6-2.463-6.492-5.687 1.036-2.969 9.094-4.95a73.789 73.789 0 0 1 17.359-1.864l.069-9.348h-87.785a6.473 6.473 0 0 1 -1.931.547zm1.105 16.3a3.723 3.723 0 0 1 -1.358-.184q-.461-.184-.138-.437a2.644 2.644 0 0 1 1.151-.437 8.042 8.042 0 0 1 1.75-.185 3.836 3.836 0 0 1 1.358.185q.437.184.161.437a2.643 2.643 0 0 1 -1.151.437 8.356 8.356 0 0 1 -1.776.182zm-18.487-6.308h12.616l-16.231 12.34h-14.758l-13.238 8.887h45.795l26.545-26.568h-32.761zm-.345.23-17.543 11.788h13.606l15.632-11.788zm-44.134 31.841a4.037 4.037 0 0 0 -2.279-.6l-2.74 1.773h4.835q.781-.688.183-1.171zm150.383-25.947q-.644-.184-.645-.437t.668-.437a4.235 4.235 0 0 1 1.059-.162l.046-6.054a71.654 71.654 0 0 0 -16.714 1.818q-7.759 1.888-8.7 4.766-1.059 3.108 6.285 5.479 7.575 2.417 19.039 2.486l.046-7.275a5.084 5.084 0 0 1 -1.085-.182zm-66.075-.507q2.509-2.878-2.947-4.766a7.775 7.775 0 0 0 -1.059-.345l-10.839 11.031q.99-.207 2-.437 10.151-2.372 12.845-5.48zm68.216-6.584.046 6.054a4.239 4.239 0 0 1 1.059.162q.668.184.667.437t-.645.437a5.023 5.023 0 0 1 -1.059.184l.046 7.275q11.442-.068 19.039-2.486 7.321-2.371 6.285-5.479-.967-2.878-8.7-4.766a71.959 71.959 0 0 0 -16.739-1.815z" fill="#fff" fill-rule="evenodd" transform="translate(-1248.32 -139.893)"/><path d="m0 0h361.604v8.468h-361.604z" fill="url(#c)" transform="translate(-.001 281.978)"/><path d="m1878.871 408.475-15.31-9.873h-6.63l14.688 9.873z" fill="#3bb114" fill-rule="evenodd" transform="translate(-1564.658 -153.616)"/><path d="m1273.485 448.146a.182.182 0 0 0 -.084-.157.383.383 0 0 0 -.224-.059h-.029a.385.385 0 0 0 -.224.059.183.183 0 0 0 -.084.157v9.254a.183.183 0 0 0 .084.157.385.385 0 0 0 .224.059h.029a.382.382 0 0 0 .224-.059.182.182 0 0 0 .084-.157z" fill="#bdbdbd" fill-rule="evenodd" transform="translate(-1249.513 -180.231)"/><path d="m1259.882 449.9 5.94 1.454v-2.83z" fill="url(#d)" fill-rule="evenodd" transform="translate(-1242.521 -180.554)"/><path d="m1416.6 356.857a.145.145 0 0 0 -.067-.124.3.3 0 0 0 -.176-.046h-.023a.3.3 0 0 0 -.177.046.145.145 0 0 0 -.067.124v7.312a.144.144 0 0 0 .067.124.3.3 0 0 0 .177.046h.023a.3.3 0 0 0 .176-.046.144.144 0 0 0 .067-.124z" fill="#bdbdbd" fill-rule="evenodd" transform="translate(-1326.803 -131)"/><path d="m1405.985 358.245 4.693 1.148v-2.235z" fill="url(#e)" fill-rule="evenodd" transform="translate(-1321.351 -131.254)"/><path d="m1815.849 356.757a.143.143 0 0 0 -.066-.124.3.3 0 0 0 -.177-.047h-.022a.3.3 0 0 0 -.177.047.144.144 0 0 0 -.066.124v7.312a.145.145 0 0 0 .066.124.3.3 0 0 0 .177.047h.022a.306.306 0 0 0 .177-.047.144.144 0 0 0 .066-.124z" fill="#bdbdbd" fill-rule="evenodd" transform="translate(-1542.217 -130.946)"/><path d="m1805.086 358.245 4.693 1.148v-2.235z" fill="url(#f)" fill-rule="evenodd" transform="translate(-1536.685 -131.255)"/><path d="m1961.124 449.461a.173.173 0 0 0 -.08-.149.36.36 0 0 0 -.212-.056h-.026a.36.36 0 0 0 -.212.056.172.172 0 0 0 -.08.149v8.774a.172.172 0 0 0 .08.149.363.363 0 0 0 .212.056h.026a.363.363 0 0 0 .212-.056.173.173 0 0 0 .08-.149z" fill="#bdbdbd" fill-rule="evenodd" transform="translate(-1620.546 -180.946)"/><path d="m1948.388 451.127 5.631 1.379v-2.683z" fill="url(#g)" fill-rule="evenodd" transform="translate(-1614.004 -181.252)"/><path d="m1326.48 409.425 15.31-9.873h6.63l-14.689 9.873z" fill="#24830b" fill-rule="evenodd" transform="translate(-1278.454 -154.128)"/><path d="m1366.16 371.051v1.258l1.45-.016v-1.242h.322v1.258l1.451-.016v-1.242l.345-.016v1.258h1.4v.291l-1.4-.016v1.145h1.4v.287h-1.4v1.145l1.4.016v.258h-1.4v1.161h1.4v.291l-1.427-.016v1.178h1.427v.29h-1.4v1.145l1.4.016v.258h-1.4v1.146l.345-.017v.033h1.059v.274h-1.4v1.048h-.345v-1.065h-1.427v1.065h-.345v-1.048h-1.45v1.048h-.3v-1.065l-1.451.016v1.048h-.345v-1.025h-1.335c.008-.1.016-.194.023-.29h1.313v-1.146h-1.174c.01-.087.022-.172.035-.258l1.163-.016v-1.161l-.955.008c.019-.091.038-.182.057-.274l.9-.008v-1.165h-.622q.038-.137.081-.273h.541v-1.178h-.173q.045-.129.092-.258h.058v-.153q.163-.44.345-.863v1.016h1.427v-1.162h-1.358c.04-.091.082-.183.127-.274h1.232v-1.161h-.645c.051-.092.1-.184.15-.274h.495v-1.258zm1.773 1.532v1.161l1.427-.016v-1.161zm-1.773 0v1.161h1.45v-1.161zm0 1.435v1.146h1.45v-1.164zm1.773 0v1.146h1.451v-1.164zm-3.522 2.6 1.427-.017v-1.161l-1.427.016zm-.023 1.452 1.474-.017v-1.177l-1.474.016zm3.546-1.469h1.451v-1.161h-1.451zm-.023.275v.532l.046-.016v.646l1.427.016v-1.177zm-1.75-1.436v1.178l1.45-.017-.046-1.161zm0 1.436v1.177h1.45v-1.163zm0 1.452v1.161h1.45v-1.161zm1.8-.016v1.177h1.45v-1.161zm-3.546.016v1.172l1.427-.016v-1.161zm3.546 2.565h1.427v-1.129l-1.427-.016zm-2.118-1.129h-1.427v1.146l1.427-.016zm.322 1.146 1.45-.016v-1.113l-1.45-.016z" fill="#4e6477" fill-rule="evenodd" transform="translate(-1298.012 -138.741)"/><path d="m1344.285 370.959q-.224.271-.441.548l-.3.187v.2q-.174.239-.338.478l-.008-.462-1.482.97.018 1.174.672-.431c-.084.142-.167.285-.247.431l-.444.282.008.555q-.151.312-.29.627l-.015-.978-1.505.954.018 1.205 1.368-.868q-.078.191-.155.383l-1.209.767.018 1.189.7-.446c-.031.106-.06.213-.087.321l-.6.391.018 1.174.285-.188c-.017.1-.035.2-.052.305l-.228.148.018 1.189.068-.047c-.007.094-.013.188-.019.281l-.046.032.013.861v.29.039.266l-1.129.728.011-.024-2.6 1.643v.016l-4.8 3.075.011-.023-5.483 3.522.011-.015-.752.469v.008l-1.87 1.182v.023l-1.824 1.15-.005.454h-.357l-.091-6.01-.08.055q.175-.742.4-1.44l.014.885 1.5-.971-.018-1.19-1.368.885q.071-.2.144-.391l1.22-.775-.018-1.174-.444.281q.118-.22.247-.438l.193-.125v-.2c.109-.18.222-.358.338-.532l.008.516 1.505-.939-.018-1.174-.57.345c.051-.059.1-.119.158-.18l1.506-.9-.73.469.018 1.189 1.5-.97-.017-1.143.342-.2.017 1.142 1.482-.955-.016-1.072.342-.2.016 1.056 1.482-.955-.016-1.041.342-.2.016 1.033 1.5-.97-.036-.9.388-.219v.133l-.023.016.012.767 1.481-.97-.012-.774.365-.2.012.743 1.46-.924-.01-.641.365-.2.01.626 1.482-.955-.008-.516.366-.2.007.5 1.482-.955-.006-.383.388-.219.005.352 1.482-.955v-.234l.343-.2v.227l1.482-.971v-.086l.342-.2v.063zm-6.255 4.273.019 1.189 1.528-.971-.018-1.19zm1.888 0 1.5-.971-.017-1.174-1.505.955zm-.361.5-1.527.97.018 1.205 1.527-.971zm.045 1.456-1.528.97.018 1.2 1.528-.97zm-3.419-.751.018 1.174 1.482-.97-.018-1.174zm-2.189 1.393-1.482.939.018 1.174 1.483-.939zm.36.939 1.505-.955-.018-1.174-1.5.955zm1.87.313 1.5-.97-.018-1.205-1.5.971zm-1.865-.031.018 1.19 1.505-.955-.018-1.173zm1.5.532-1.483.939.018 1.174 1.482-.939zm1.864 0-.018-1.174-1.482.939.018 1.189zm0 .282-1.482.954.018 1.174 1.481-.955zm-3.716-.6-1.5.971.018 1.2 1.5-.986zm3.738 2.035-1.482.955.018 1.19 1.482-.955zm-1.846-.266-1.505.939.018 1.189 1.505-.955zm-1.869-.3-1.482.97.018 1.174 1.482-.954zm-3.356.376 1.505-.954-.018-1.174-1.505.955zm-1.842 0 .018 1.174 1.482-.971-.018-1.173zm0 1.471.018 1.189 1.505-.97-.018-1.189zm1.865.016 1.5-.955-.018-1.206-1.505.955zm1.51-.673-1.505.954.018 1.174 1.5-.955zm.382 2.426 1.482-.97-.018-1.189-1.482.97zm-.36-.986-1.505.955.018 1.189 1.5-.955zm-1.465 3.6 1.505-.955-.018-1.189-1.505.955zm-1.846-.3 1.482-.955-.018-1.174-1.482.955zm0 .266.018 1.205 1.482-.955-.018-1.2zm3.671-2.316.018 1.174 1.482-.97-.018-1.174zm-2.215-.345-.018-1.189-1.482.955.018 1.19zm7.431-.344-.018-1.189-1.505.954.018 1.189zm-3.374.673 1.505-.939-.018-1.189-1.505.955zm-.315.486-1.5.97.017 1.174 1.505-.955zm1.824-1.143-1.505.939.018 1.174 1.505-.939zm-8.934-1.659.018 1.174 1.482-.955-.018-1.174zm-3.7 3.537 1.528-.97-.018-1.19-1.528.97zm5.244-1.846-.018-1.205-1.528.971.018 1.205zm-3.375.642 1.505-.955-.018-1.174-1.505.955zm-.338.516-1.528.971.019 1.2 1.527-.971zm2.234 1.534.018 1.189 1.482-.955-.018-1.189zm1.478-1.221-.017-1.189-1.483.954.018 1.189zm-1.842-.016-1.505.955.018 1.174 1.505-.955zm-.023-1.487-1.505.955.018 1.205 1.505-.955zm.409 4.179.018 1.19 1.482-.955-.018-1.189zm-1.829 2.348 1.5-.954-.018-1.189-1.505.954zm-.36-.97-1.528.97.018 1.19 1.528-.971zm3.711.313-.018-1.205-1.482.955.018 1.205zm-3.373-.8 1.505-.955-.018-1.19-1.505.955zm-.36-.97-1.528.97.018 1.2 1.527-.97zm.386 2.692.018 1.189 1.5-.955-.018-1.189zm-1.918-1.972 1.528-.97-.019-1.189-1.528.97zm-.338.485-1.505.955.018 1.189 1.505-.955zm-1.526-.485.018 1.174 1.505-.955-.018-1.174zm.084 5.54 1.505-.955-.018-1.189-1.505.955zm1.847-1.189 1.528-.97-.018-1.189-1.528.97zm-.364-1.22-.018-1.19-1.5.955.018 1.189zm7.368-4.461-1.482.955.018 1.189 1.482-.955zm.36.971 1.5-.955-.018-1.174-1.505.955zm7.321-7.591 1.528-.97-.018-1.205-1.528.971zm0 .25.018 1.206 1.528-.971-.019-1.2zm1.549.47-1.527.971.018 1.205 1.528-.971z" fill="#9aafc2" fill-rule="evenodd" transform="translate(-1275.538 -138.7)"/><path d="m1370.983 382.406h-8.541a.46.46 0 0 1 -.46-.461 17.551 17.551 0 0 1 3.737-11.405.46.46 0 0 1 .356-.169h5.439a.46.46 0 1 1 0 .921h-5.214a16.548 16.548 0 0 0 -3.388 10.194h8.075a.46.46 0 0 1 0 .921z" fill="#dde4ed" transform="translate(-1297.609 -138.383)"/><path d="m1328.7 394.437h.322v13.518l-.322-.016v-1.146h-1.427v1.162l-.345-.016.023-1.129-1.45-.016v1.162l-.346-.016v-1.146h-1.45l-.023 1.178-.323-.016v-1.129l-.069-.017-1.358-.016-.023 1.178h-.346v-1.178h-1.381v-.258h1.381v-1.161h-1.289q.01-.138.023-.274h1.266v-1.145h-1.151q.016-.138.035-.274h1.116v-1.161h-.932c.017-.093.032-.184.046-.274h.886v-1.162h-.621q.036-.143.069-.282l.576-.008v-1.162h-.219c.03-.092.061-.183.092-.274h.1v-.282q.163-.43.346-.838v1.121l1.45-.016v-1.164l-1.439.032c.041-.093.083-.184.127-.274l1.312-.032v-1.13l-.046-.016h-.645q.084-.143.173-.282l.518-.009v-.742q.258-.344.541-.661l1.255-.016v-.613h.346v.613l1.427-.016v-.6h.345v.613l1.427-.016zm0 3.726-1.427.033v1.145l1.427-.016zm0-1.419h-1.427v1.177l1.427-.032zm0-1.452-1.427.016v1.177l1.427-.032zm-3.2.033v1.161l1.427-.032v-1.162zm-3.592 4.323v1.178l1.45-.016v-1.178zm1.8-.29h1.45v-1.178h-1.45zm0-1.436 1.427.016v-1.161l-1.427-.016zm1.8 1.42 1.427-.016v-1.162l-1.427.033zm1.427-1.435v-1.161l-1.427.016v1.161zm-1.45 1.694v1.194h1.474v-1.178zm-1.773-3.114h1.45v-1.193l-1.45.016zm-.023 3.146v1.178l1.473-.016v-1.178zm1.819 4.033 1.427-.016v-1.162l-1.427.016zm-.346-1.178h-1.45v1.194h1.45zm2.118 1.178 1.427-.016v-1.162l-1.427.016zm-2.118-2.6-1.45.016v1.162h1.45zm.346 1.178 1.427-.016v-1.178l-1.427.032zm1.773 0 1.427-.032v-1.162l-1.427.032zm-5.364-1.145v1.161l1.45-.032v-1.162zm0 2.581 1.45-.016v-1.164l-1.45.017zm0 .258v1.177l1.45-.016v-1.178zm1.8 1.161h1.45v-1.178l-1.45.017zm-1.8.274v1.177l1.45-.032v-1.178zm1.8 1.161 1.45-.016v-1.161h-1.45zm3.568-1.436 1.427-.016v-1.178l-1.427.016zm-.345-1.194-1.427.033v1.177l1.427-.032zm.345 2.63 1.427-.032v-1.178l-1.427.033zm-.345-1.194-1.427.017v1.177l1.427-.016zm1.8-5.727-1.473-.016v1.194h1.473z" fill="#a8c2d9" fill-rule="evenodd" transform="translate(-1275.054 -151.368)"/><path d="m1350.087 371.435h2.556l.051-.029h.564l-4.155 2.359h.012l-2.459 1.4h-.011l-2.056 1.172h-.023l-3.79 2.159h.012l-.353.2h-.023l-3.751 2.13h.023l-2.084 1.174h.023l-.4.229-6.243-.015-.031.015h-.61l.4-.229h.023l1.695-.958h-.034l.384-.214h.011l1.676-.943h-.023l.384-.215h.023l2.064-1.187h.011l5.869-3.332h-.012l.353-.2h.023l1.652-.944h-.011l2.129-1.2h-.012l2.44-1.387 3.739-.007zm-.365.2-1.695.958h2.578l1.695-.958zm-2.631 1.172h-2.6l-1.672.958h2.578zm-2.141 1.2-2.49-.014-1.718.958h2.556zm-1.077.944h2.578l1.672-.958h-2.556zm-.365.2-1.692.973h2.578l1.649-.958zm-3.131 0-1.7.958h2.578l1.7-.958zm-.659 2.159 2.575-.014 1.7-.958h-2.578zm-.407.215-1.691.972h2.578l1.672-.958zm10.868-4.7h-2.556l-1.675.943 2.559.014zm-3.588-1.187-1.7.958h2.579l1.695-.958zm-10 5.676 2.575-.014 1.695-.958h-2.578zm-.407.215-1.692.972 2.6-.014 1.672-.958zm-2.056 1.172-1.7.958h2.579l1.7-.958zm1.079 1.187-1.7.943h2.578l1.7-.943zm2.939-.215 1.672-.958-2.559-.014-1.695.958zm-6.694 2.33h2.578l1.7-.958-2.575.015zm.623-2.115-1.7.943h2.579l1.7-.958zm-3.758 2.112h2.578l1.695-.958-2.575.015z" fill="#dde4ed" fill-rule="evenodd" transform="translate(-1278.917 -138.942)"/><path d="m1328.9 408.23h-9.255a.461.461 0 0 1 -.46-.461c.009-5.483 1.363-10.111 4.026-13.756a.46.46 0 0 1 .372-.189h5.894a.46.46 0 1 1 0 .921h-5.658a21.869 21.869 0 0 0 -3.708 12.565h8.791a.46.46 0 1 1 0 .921z" fill="#dde4ed" transform="translate(-1274.515 -151.037)"/><path d="m1339.471 395.612a.691.691 0 0 1 -.691-.691v-12.437a1.776 1.776 0 0 1 .916-1.579l18.936-10.685a.691.691 0 0 1 1.03.6v11.324a.691.691 0 1 1 -1.381 0v-10.144l-17.895 10.1a.386.386 0 0 0 -.224.382v12.438a.691.691 0 0 1 -.691.692z" fill="#fff" transform="translate(-1285.09 -138.253)"/><path d="m1856.8 371.051v1.258l-1.45-.016v-1.242h-.323v1.258l-1.45-.016v-1.242l-.345-.016v1.258h-1.4v.291l1.4-.016v1.145h-1.4v.287h1.4v1.145l-1.4.016v.258h1.4v1.161h-1.4v.291l1.428-.016v1.178h-1.428v.29h1.4v1.145l-1.4.016v.258h1.4v1.146l-.345-.017v.033h-1.059v.274h1.4v1.048h.345v-1.065h1.427v1.065h.345v-1.048h1.45v1.048h.3v-1.065l1.451.016v1.048h.345v-1.025h1.335c-.008-.1-.016-.194-.023-.29h-1.303v-1.146h1.174c-.01-.087-.022-.172-.035-.258l-1.163-.016v-1.161l.955.008c-.019-.091-.038-.182-.057-.274l-.9-.008v-1.165h.622q-.038-.137-.08-.273h-.541v-1.178h.173c-.03-.086-.061-.172-.092-.258h-.058v-.153q-.164-.44-.345-.863v1.016h-1.428v-1.162h1.358c-.04-.091-.082-.183-.126-.274h-1.232v-1.161h.645c-.051-.092-.1-.184-.149-.274h-.5v-1.258zm-1.773 1.532v1.161l-1.427-.016v-1.161zm1.773 0v1.161h-1.45v-1.161zm0 1.435v1.146h-1.45v-1.164zm-1.773 0v1.146h-1.45v-1.164zm3.523 2.6-1.428-.017v-1.161l1.428.016zm.022 1.452-1.473-.017v-1.177l1.473.016zm-3.522-1.194v.532l-.046-.016v.646l-1.427.016v-1.177zm-.023-.275h-1.45v-1.161h1.45zm1.773.275v1.177h-1.45v-1.163zm0-1.436v1.178l-1.45-.017.046-1.161zm0 2.888v1.161h-1.45v-1.161zm-1.8-.016v1.177h-1.451v-1.161zm3.546.016v1.172l-1.428-.016v-1.161zm-3.546 2.565h-1.427v-1.129l1.427-.016zm1.8.016-1.45-.016v-1.113l1.45-.016zm.322-1.146h1.428v1.146l-1.428-.016z" fill="#4e6477" fill-rule="evenodd" transform="translate(-1561.906 -138.741)"/><path d="m1861.329 370.959q.223.271.441.548l.3.187v.2q.173.239.338.478l.007-.462 1.482.97-.018 1.174-.672-.431c.084.142.167.285.246.431l.445.282-.008.555q.151.312.29.627l.015-.978 1.505.954-.019 1.205-1.368-.868q.078.191.155.383l1.208.767-.018 1.189-.7-.446c.031.106.06.213.087.321l.6.391-.018 1.174-.285-.188c.017.1.035.2.053.305l.228.148-.018 1.189-.068-.047c.006.094.013.188.019.281l.045.032-.013.861v.29.039.266l1.129.728-.011-.024 2.6 1.643v.016l4.8 3.075-.011-.023 5.484 3.522-.012-.015.753.469v.008l1.87 1.182v.023l1.824 1.15v.454h.357l.091-6.01.079.055q-.174-.742-.4-1.44l-.014.885-1.5-.971.018-1.19 1.367.885c-.047-.133-.1-.263-.144-.391l-1.22-.775.018-1.174.444.281q-.119-.22-.247-.438l-.194-.125v-.2q-.163-.271-.337-.532l-.008.516-1.505-.939.018-1.174.57.345c-.051-.059-.1-.119-.158-.18l-1.506-.9.73.469-.018 1.189-1.5-.97.017-1.143-.342-.2-.017 1.142-1.482-.955.016-1.072-.342-.2-.016 1.056-1.482-.955.016-1.041-.342-.2-.016 1.033-1.5-.97.037-.9-.388-.219v.133l.022.016-.012.767-1.482-.97.011-.774-.365-.2-.011.743-1.46-.924.01-.641-.365-.2-.009.626-1.482-.955.008-.516-.365-.2-.008.5-1.482-.955.006-.383-.388-.219-.006.352-1.482-.955v-.234l-.342-.2v.227l-1.481-.971v-.086l-.343-.2v.063zm4.367 4.273-1.5-.971.017-1.174 1.505.955zm1.887 0-.018 1.189-1.528-.971.018-1.19zm-1.527.5 1.528.97-.018 1.205-1.528-.971zm-.045 1.456 1.528.97-.019 1.2-1.528-.97zm3.419-.751-.018 1.174-1.482-.97.018-1.174zm1.83 2.332-1.5-.955.017-1.174 1.505.955zm.359-.939 1.483.939-.019 1.174-1.483-.943zm-2.229 1.252-1.505-.97.019-1.205 1.505.971zm1.865-.031-.018 1.19-1.505-.955.018-1.173zm-3.373.814 1.482.954-.018 1.174-1.482-.955zm1.486.673-1.482-.954.018-1.174 1.482.939zm.383-.954 1.482.939-.018 1.174-1.482-.939zm1.847-.314 1.5.971-.019 1.2-1.5-.986zm-3.737 2.035 1.482.955-.018 1.19-1.482-.955zm3.715-.563 1.481.97-.017 1.174-1.482-.954zm-1.869.3 1.505.939-.018 1.189-1.505-.955zm7.067.078-.018 1.174-1.482-.971.017-1.173zm-1.842 0-1.5-.954.018-1.174 1.5.955zm-.023 1.487-1.5-.955.018-1.206 1.5.955zm1.866-.016-.018 1.189-1.5-.97.018-1.189zm-3.375-.657 1.505.954-.018 1.174-1.5-.955zm-.382 2.426-1.482-.97.018-1.189 1.482.97zm.361-.986 1.5.955-.018 1.189-1.505-.955zm3.307 3.569-.018 1.205-1.482-.955.018-1.2zm0-.266-1.482-.955.018-1.174 1.482.955zm-1.847.3-1.5-.955.018-1.189 1.5.955zm.386-2.693.018-1.189 1.482.955-.019 1.19zm-2.216.345-.009 1.171-1.482-.97.018-1.174zm-3.71.266-1.505-.955.018-1.189 1.505.954zm1.869-.282-1.5-.939.018-1.189 1.5.955zm.316.486 1.5.97-.018 1.174-1.5-.955zm-1.825-1.143 1.5.939-.017 1.174-1.5-.939zm8.935-1.659-.018 1.174-1.482-.955.018-1.174zm3.7 3.537-1.528-.97.018-1.19 1.528.97zm-3.717-.876-1.528-.971.019-1.205 1.527.971zm1.847-.329-1.505-.955.017-1.174 1.505.955zm.338.516 1.528.971-.018 1.2-1.528-.971zm-1.87.3 1.5.955-.017 1.174-1.505-.955zm-1.842.016.018-1.189 1.481.954-.018 1.189zm0 .266 1.482.955-.018 1.189-1.482-.955zm1.868-1.769 1.505.955-.018 1.205-1.505-.955zm-1.89 3.224 1.482.955-.018 1.19-1.482-.955zm3.311 3.3-1.505-.954.018-1.189 1.505.954zm.36-.97 1.528.97-.018 1.19-1.528-.971zm-3.712.313.018-1.205 1.482.955-.018 1.205zm3.348.924-.018 1.189-1.506-.955.018-1.189zm.385-2.692 1.528.97-.018 1.2-1.528-.97zm-.36.97-1.505-.955.018-1.19 1.5.955zm1.892-.25-1.528-.97.018-1.189 1.528.97zm.338.485 1.505.955-.018 1.189-1.505-.955zm1.527-.485-.018 1.174-1.5-.955.018-1.174zm-.084 5.54-1.505-.955.018-1.189 1.505.955zm-1.847-1.189-1.528-.97.018-1.189 1.528.97zm1.869-.266-1.505-.955.018-1.19 1.505.955zm-9.234-4.445-1.505-.955.017-1.174 1.505.955zm.36-.971 1.482.955-.018 1.189-1.482-.955zm-7.684-6.37-.018 1.206-1.528-.971.019-1.2zm0-.25-1.528-.97.019-1.205 1.528.971zm-1.553.72 1.528.971-.018 1.205-1.528-.971z" fill="#9aafc2" fill-rule="evenodd" transform="translate(-1567.031 -138.7)"/><path d="m1858.657 382.406h-8.541a.46.46 0 0 1 0-.921h8.075a16.548 16.548 0 0 0 -3.388-10.194h-5.219a.46.46 0 1 1 0-.921h5.439a.461.461 0 0 1 .356.169 17.553 17.553 0 0 1 3.737 11.405.46.46 0 0 1 -.46.461z" fill="#dde4ed" transform="translate(-1560.447 -138.383)"/><path d="m1893.753 395.292 1.427.016v1.177l-1.427-.032zm0 1.452h1.427v1.177l-1.427-.032zm0 1.419 1.427.033v1.145l-1.427-.016zm0-3.726h-.322v13.518l.322-.016v-1.146h1.427v1.162l.345-.016-.022-1.129 1.45-.016v1.162l.345-.016v-1.146h1.45l.023 1.178.322-.016v-1.129l.069-.017 1.358-.016.023 1.178h.345v-1.178h1.382v-.258h-1.382v-1.161h1.29c-.007-.092-.015-.184-.023-.274h-1.266v-1.145h1.151c-.011-.092-.023-.184-.034-.274h-1.117v-1.161h.933c-.017-.093-.032-.184-.046-.274h-.887v-1.162h.622c-.024-.1-.047-.189-.069-.282l-.576-.008v-1.162h.219c-.031-.092-.061-.183-.093-.274h-.1v-.282q-.163-.43-.345-.838v1.121l-1.451-.016v-1.164l1.439.032c-.041-.093-.083-.184-.127-.274l-1.312-.032v-1.13l.046-.016h.645q-.084-.143-.173-.282l-.518-.009v-.742q-.257-.344-.541-.661l-1.255-.016v-.613h-.345v.613l-1.427-.016v-.6h-.345v.613l-1.427-.016zm3.2.888v1.161l-1.427-.032v-1.162zm1.8 4.032h-1.45v-1.177h1.45zm1.8.29v1.178l-1.451-.016v-1.178zm-1.8-1.726-1.427.016v-1.161l1.427-.016zm-1.8 1.42-1.427-.016v-1.162l1.427.033zm.023.258v1.194h-1.476v-1.178zm-1.451-1.694v-1.161l1.427.016v1.161zm3.246 1.726v1.178l-1.474-.016v-1.178zm-.023-3.146h-1.45v-1.193l1.45.016zm-1.8 7.179-1.427-.016v-1.162l1.427.016zm.345-1.178h1.45v1.194h-1.45zm-2.118 1.178-1.427-.016v-1.162l1.427.016zm0-1.42-1.427-.032v-1.162l1.427.032zm1.773 0-1.427-.016v-1.178l1.427.032zm.345-1.178 1.45.016v1.162h-1.45zm3.246.033v1.161l-1.451-.032v-1.162zm0 2.581-1.451-.016v-1.164l1.451.017zm0 1.694v1.177l-1.451-.032v-1.178zm-1.8-.274h-1.45v-1.178l1.45.017zm1.8-1.161v1.177l-1.451-.016v-1.178zm-1.8 2.6-1.45-.016v-1.161h1.45zm-3.568-1.436-1.427-.016v-1.178l1.427.016zm.345-1.194 1.427.033v1.177l-1.427-.032zm0 1.436 1.427.017v1.177l-1.427-.016zm-.345 1.194-1.427-.032v-1.178l1.427.033zm-1.451-6.921 1.473-.016v1.194h-1.473z" fill="#a8c2d9" fill-rule="evenodd" transform="translate(-1584.352 -151.368)"/><path d="m1852.717 371.635 1.7.958h-2.579l-1.695-.958zm-.365-.2h-2.552l-.051-.029h-.563l4.154 2.359h-.011l2.46 1.4h.011l2.056 1.172h.023l3.79 2.159h-.012l.353.2h.023l3.751 2.13h-.023l2.079 1.172h-.023l.4.229 6.242-.015.031.015h.61l-.4-.229h-.023l-1.7-.958h.035l-.384-.214h-.011l-1.676-.943h.023l-.384-.215h-.023l-2.064-1.187h-.011l-5.869-3.332h.011l-.353-.2h-.022l-1.653-.944h.011l-2.129-1.2h.012l-2.44-1.387-3.739-.007zm6.579 3.717 1.691.973h-2.578l-1.649-.958zm-.365-.2h-2.578l-1.672-.958h2.556zm-1.077-.944 2.49-.014 1.718.958h-2.555zm-2.142-1.2h2.6l1.672.958h-2.579zm6.714 2.345 1.695.958h-2.578l-1.7-.958zm1.066 2.374 1.691.972h-2.578l-1.672-.958zm-.407-.215-2.575-.014-1.695-.958h2.578zm-10.461-4.489h2.555l1.676.943-2.559.014zm3.587-1.187 1.7.958h-2.579l-1.7-.958zm12.468 7.063 1.695.958h-2.578l-1.7-.958zm-2.056-1.172 1.691.972-2.6-.014-1.672-.958zm-.407-.215-2.575-.014-1.7-.958h2.579zm-1.555 2.359-1.673-.958 2.56-.014 1.694.958zm2.939.215 1.7.943h-2.579l-1.7-.943zm3.131 0 1.7.943h-2.578l-1.695-.958zm-1.953 2.114-1.695-.958 2.575.015 1.7.943zm5.71 0h-2.579l-1.694-.958 2.575.015z" fill="#dde4ed" fill-rule="evenodd" transform="translate(-1560.478 -138.942)"/><path d="m1900.571 408.23h-9.255a.46.46 0 1 1 0-.921h8.79a21.875 21.875 0 0 0 -3.708-12.565h-5.658a.46.46 0 1 1 0-.921h5.894a.462.462 0 0 1 .372.189c2.662 3.645 4.016 8.274 4.025 13.756a.461.461 0 0 1 -.46.461z" fill="#dde4ed" transform="translate(-1582.652 -151.037)"/><path d="m1868.871 395.612a.691.691 0 0 1 -.69-.691v-12.437a.394.394 0 0 0 -.235-.388l-17.884-10.096v10.141a.691.691 0 1 1 -1.381 0v-11.32a.69.69 0 0 1 1.03-.6l18.924 10.679a1.782 1.782 0 0 1 .927 1.585v12.438a.691.691 0 0 1 -.691.689z" fill="#fff" transform="translate(-1560.207 -138.253)"/><path d="m405.654 151.775a4.449 4.449 0 0 1 1.479-4.371l29.306-20.33 5.019 7.286-27.705 21.056c-2.913 2.34-7.398.906-8.099-3.641z" fill="#f2bc89" transform="translate(-196.405 -57.105)"/><path d="m372.267 136.878 34.882 7.84c-.9 4.154-2.859 9.167-4.234 13.9l-33.666-10.242c-3.629-.88-11.295-2.849-8.2-6.143 1.453-1.653 7.623-6.231 11.222-5.358z" fill="#a3d65c" transform="translate(-192.501 -57.942)"/><path d="m437.384 127.861c-1.646-4.5.38-9.373 4.525-10.891s8.839.9 10.485 5.4-.379 9.373-4.525 10.89-8.838-.902-10.485-5.399z" fill="#f2bc89" transform="translate(-199.099 -56.194)"/><path d="m452.143 113.557c-2.591.981-3.171 1.227-6.57 2.7a2.257 2.257 0 0 0 -.964 2.793 1.811 1.811 0 0 0 2.327 1.369c3.4-1.47 3.867-1.672 6.443-2.648a2.2 2.2 0 0 0 1.086-2.716 1.86 1.86 0 0 0 -2.273-1.515z" fill="#f2bc89" transform="translate(-199.76 -55.93)"/><path d="m453.825 117.824c-3 1.041-3.67 1.3-7.607 2.85a2.212 2.212 0 0 0 -1.179 2.817 2.048 2.048 0 0 0 2.641 1.333l.016-.005c3.935-1.55 4.479-1.762 7.461-2.8a2.192 2.192 0 0 0 1.3-2.749 2.066 2.066 0 0 0 -2.58-1.468l-.055.019z" fill="#f2bc89" transform="translate(-199.797 -56.297)"/><path d="m455.144 122.483c-2.886.526-3.535.669-7.346 1.54a2.121 2.121 0 0 0 -1.4 2.582 2.015 2.015 0 0 0 2.291 1.739c3.809-.87 4.336-.989 7.206-1.511a2.08 2.08 0 0 0 1.517-2.488 2.053 2.053 0 0 0 -2.214-1.87l-.053.009z" fill="#f2bc89" transform="translate(-199.922 -56.706)"/><path d="m455.165 126.91c-2.344.052-2.872.088-5.975.328-.83.064-1.392 1.1-1.255 2.307s.92 2.141 1.75 2.078c3.1-.24 3.53-.272 5.86-.323.835 0 1.437-.982 1.344-2.195s-.847-2.195-1.683-2.195z" fill="#f2bc89" transform="translate(-200.057 -57.091)"/><path d="m454.969 129.649a1.053 1.053 0 0 0 -.178.01 26.113 26.113 0 0 1 -3.575.276 1.054 1.054 0 0 0 -.918.439c-1.39 1.945-3.034 2.487-6.256 2.977-.065.008-.536 1.329-.6 1.348 1.005.521 1.761.163 3.262.138a5.664 5.664 0 0 0 4.917-2.837 29.756 29.756 0 0 0 3.431-.249 1.054 1.054 0 0 0 -.083-2.1z" fill="#d09b69" transform="translate(-199.671 -57.327)"/><path d="m454.605 115.893a90.368 90.368 0 0 0 -9.648 4 1.985 1.985 0 0 0 .857.73 88.071 88.071 0 0 1 8.529-3.5 2.475 2.475 0 0 0 .261-1.236z" fill="#d09b69" transform="translate(-199.802 -56.14)"/><path d="m456.5 120.89c-3.676 1.14-7.225 2.591-11.169 3.376a2.129 2.129 0 0 0 1.085.854c1.58-.357 3.09-.81 4.563-1.292 1.3-.5 2.415-.909 4.211-1.532a2.067 2.067 0 0 0 1.31-1.406z" fill="#d09b69" transform="translate(-199.835 -56.571)"/><path d="m457 125.824-2.346.474h-.008l-.025.009a64.388 64.388 0 0 0 -7.6 1.368.47.47 0 0 0 -.206.118 1.931 1.931 0 0 0 1.446.88l3.193-.648c1.453-.321 2.6-.559 4.483-.9a1.85 1.85 0 0 0 1.4-1.238.476.476 0 0 0 -.337-.059z" fill="#d09b69" transform="translate(-199.962 -56.997)"/><path d="m437.567 104.39a2.109 2.109 0 0 0 -1.923 2.942c1.647 3.99 1.885 9.138 1.314 13.711-.349 2.791 4.732 3.126 5.08.335a31.766 31.766 0 0 0 -2.5-15.657 2.106 2.106 0 0 0 -1.971-1.331z" fill="#f2bc89" transform="translate(-198.984 -55.148)"/><path d="m444.909 116.449a1.053 1.053 0 0 0 -1.083.91 16.347 16.347 0 0 0 .98 8.146 10.95 10.95 0 0 0 4.34 5.73 1.055 1.055 0 1 0 1.055-1.827l-.009-.005a9.3 9.3 0 0 1 -3.417-4.651 14.422 14.422 0 0 1 -.863-7.075 1.054 1.054 0 0 0 -.866-1.213.849.849 0 0 0 -.136-.014z" fill="#d09b69" transform="translate(-199.691 -56.188)"/><path d="m444.813 122.9a.858.858 0 0 0 -.847.777c-.237 2.178-1.542 3.224-3 4.267a.857.857 0 1 0 .954 1.424.444.444 0 0 0 .043-.03c1.528-1.092 3.4-2.649 3.71-5.477a.857.857 0 0 0 -.746-.955.889.889 0 0 0 -.111-.006z" fill="#d09b69" transform="translate(-199.425 -56.745)"/><path d="m436.016 105.532a.689.689 0 0 0 -.661.938c2.494 6.673 2.33 12.526 1.426 18.257a.688.688 0 1 0 1.353.254.32.32 0 0 0 .006-.041c.923-5.849 1.1-12.012-1.495-18.953a.69.69 0 0 0 -.629-.455z" fill="#ddab7b" transform="translate(-198.97 -55.246)"/><path d="m412.068 156.379a.913.913 0 0 1 .24-1.2l28.092-21.238a.914.914 0 1 1 1.109 1.451l-28.091 21.239a.914.914 0 0 1 -1.35-.252z" fill="#d09b69" transform="translate(-196.953 -57.678)"/><path d="m381.366 151.979a.914.914 0 0 1 .964-.3l21.949 6.068a.914.914 0 0 1 -.489 1.762l-21.947-6.068a.913.913 0 0 1 -.476-1.462z" fill="#91c24c" transform="translate(-194.298 -59.225)"/><path d="m406.842 144.5 3.949.887c-.9 4.153-2.86 9.166-4.235 13.9l-4.017-1.222 4.3-13.568z" fill="#91c24c" transform="translate(-196.143 -58.608)"/><path d="m373.728 138.071a.914.914 0 0 1 .887-.286l27.987 5.937a.914.914 0 1 1 -.372 1.79h-.01l-27.986-5.939a.913.913 0 0 1 -.508-1.5z" fill="#91c24c" transform="translate(-193.637 -58.027)"/><path d="m301.8 175.043a4.447 4.447 0 0 0 -2.876 3.609l-1.245 35.648 8.844.28 2.718-34.692c.392-3.716-3.24-6.712-7.444-4.842z" fill="#f2bc89" transform="translate(-187.096 -61.194)"/><path d="m314.448 141.465-16.923 31.493c3.727 2.041 8.8 3.844 13.28 5.906l14.312-32.147c1.712-3.319 5.245-10.4.731-10.223-2.2.016-9.7 1.679-11.4 4.971z" fill="#a3d65c" transform="translate(-187.083 -57.917)"/><path d="m309.145 179.039a.915.915 0 0 0 -.88.852l-2.773 34.265a.914.914 0 1 0 1.815.217q0-.034.005-.069l2.775-34.265a.913.913 0 0 0 -.823-1 1.029 1.029 0 0 0 -.119 0z" fill="#d09b69" transform="translate(-187.77 -61.588)"/><path d="m300.575 215.994c4.145-.712 8.036 1.807 8.692 5.628s-2.173 7.493-6.318 8.2-8.036-1.807-8.692-5.628 2.173-7.494 6.318-8.2z" fill="#f2bc89" transform="translate(-186.793 -64.765)"/><path d="m302.03 226.246a1.789 1.789 0 0 0 -1.5 1.547c-.735 4.567-.027 8.98.7 13.212a1.784 1.784 0 1 0 3.52-.549l-.009-.053c-.718-4.188-1.3-8.134-.692-11.9a1.929 1.929 0 0 0 -1.431-2.231 1.685 1.685 0 0 0 -.586-.024z" fill="#f2bc89" transform="translate(-187.315 -65.659)"/><path d="m305.438 224.9a1.823 1.823 0 0 0 -.841 1.295c-.705 4.263 1.06 8.861 2.173 11.8a1.807 1.807 0 0 0 2.317 1.135 1.873 1.873 0 0 0 1.011-2.416l-.014-.034c-1.072-2.833-2.4-7.134-1.965-9.737a1.947 1.947 0 0 0 -1.427-2.245 1.681 1.681 0 0 0 -1.255.2z" fill="#f2bc89" transform="translate(-187.679 -65.523)"/><path d="m297.844 226.118a1.753 1.753 0 0 0 -1.185 1.2 25.4 25.4 0 0 0 -.86 6.775 30.185 30.185 0 0 0 .268 5.52 1.87 1.87 0 0 0 2.1 1.557 1.812 1.812 0 0 0 1.412-2.161 33.755 33.755 0 0 1 -.2-4.708 24.12 24.12 0 0 1 .683-5.688 1.972 1.972 0 0 0 -1.109-2.433 1.712 1.712 0 0 0 -1.108-.059z" fill="#f2bc89" transform="translate(-186.933 -65.643)"/><path d="m294.566 223.974a1.763 1.763 0 0 0 -.98.919c-1.221 2.575-2.526 5.735-1.986 9.2a1.823 1.823 0 0 0 2.025 1.566 1.782 1.782 0 0 0 1.51-2.038l-.006-.048c-.338-2.166.543-4.671 1.679-7.069a1.851 1.851 0 0 0 -.806-2.447 1.762 1.762 0 0 0 -1.436-.083z" fill="#f2bc89" transform="translate(-186.561 -65.454)"/><path d="m308.511 221.85a1.746 1.746 0 0 0 -1.018 2.825c1.971 1.514 2.534 3.657 3.075 6.115a1.747 1.747 0 1 0 3.483.262c-.757-3.239-.611-4.629-3.831-8.559a1.749 1.749 0 0 0 -1.709-.643z" fill="#f2bc89" transform="translate(-187.908 -65.278)"/><path d="m321.226 157.88a.913.913 0 0 0 -.858.532l-9.791 20.559a.914.914 0 1 0 1.645.8l.005-.012 9.791-20.559a.913.913 0 0 0 -.792-1.317z" fill="#91c24c" transform="translate(-188.201 -59.763)"/><path d="m299.441 172.5-1.917 3.566c3.727 2.041 8.8 3.842 13.279 5.905l1.709-3.836z" fill="#91c24c" transform="translate(-187.083 -61.024)"/><path d="m315.335 143a.916.916 0 0 0 -.8.484l-13.845 25.036a.914.914 0 1 0 1.6.894l.005-.01 13.843-25.037a.914.914 0 0 0 -.8-1.367z" fill="#91c24c" transform="translate(-187.346 -58.479)"/><path d="m17.671 0a17.808 17.808 0 0 1 10.766 3.657 17.672 17.672 0 1 1 -10.766-3.657z" fill="#fff" transform="translate(203.052 221.89)"/><path d="m433.191 306.234a17.642 17.642 0 0 1 -33.283.011 17.615 17.615 0 0 0 16.641 23.55 17.671 17.671 0 0 0 17.672-17.67 17.672 17.672 0 0 0 -1.03-5.889z" fill="#f8f8f8" transform="translate(-195.827 -72.562)"/><path d="m413.033 319.929-3.14-9.712 8.251-5.915 7.521 6.28-3.505 9.054z" fill="#535353" transform="translate(-196.777 -72.396)"/><path d="m433.351 323.115-8.369.408-3.552 7.477a17.672 17.672 0 0 0 11.921-7.885z" fill="#535353" transform="translate(-197.773 -74.019)"/><path d="m401.739 322.77a17.67 17.67 0 0 0 12.414 8.23l-3.24-7.469z" fill="#535353" transform="translate(-196.074 -73.989)"/><path d="m402.972 300.311a17.437 17.437 0 0 0 -3.664 15.072l6.275-6.383-2.611-8.685z" fill="#535353" transform="translate(-195.827 -72.051)"/><path d="m417.584 293.34a17.662 17.662 0 0 0 -6.712 1.34l7.283 4.952 6.814-4.655a17.665 17.665 0 0 0 -7.385-1.637z" fill="#535353" transform="translate(-196.862 -71.45)"/><path d="m433.12 300.641-2.45 8.457 6 5.634a17.446 17.446 0 0 0 -3.553-14.091z" fill="#535353" transform="translate(-198.57 -72.08)"/><path d="m403.969 308.622a.578.578 0 0 0 -.1 1.141l8.689 2.118a.578.578 0 1 0 .289-1.12h-.016l-8.689-2.117a.574.574 0 0 0 -.172-.018z" fill="#535353" transform="translate(-196.218 -72.768)"/><path d="m418.86 296.068a.577.577 0 0 0 -.569.588v9.929a.578.578 0 1 0 1.156.018v-9.948a.577.577 0 0 0 -.569-.588h-.017z" fill="#535353" transform="translate(-197.502 -71.685)"/><path d="m431.949 308.3a.579.579 0 0 0 -.208.045l-8.69 3.431a.579.579 0 0 0 .426 1.076l8.69-3.433a.579.579 0 0 0 -.217-1.119z" fill="#535353" transform="translate(-197.881 -72.741)"/><path d="m422.215 318.606a.578.578 0 0 0 -.469.909l5.038 7.448a.579.579 0 0 0 .967-.636l-.009-.013-5.038-7.448a.578.578 0 0 0 -.489-.26z" fill="#535353" transform="translate(-197.791 -73.63)"/><path d="m413.823 319.166a.577.577 0 0 0 -.461.28l-4.015 6.5a.578.578 0 1 0 .969.632l.016-.025 4.016-6.5a.578.578 0 0 0 -.523-.889z" fill="#535353" transform="translate(-196.722 -73.678)"/><path d="m416.508 292.866a18.1 18.1 0 1 0 18.106 18.1 18.11 18.11 0 0 0 -18.106-18.1zm0 .867a17.237 17.237 0 1 1 -17.237 17.237 17.232 17.232 0 0 1 17.237-17.237z" fill="#535353" transform="translate(-195.786 -71.409)"/><path d="m331.672 210.159a6.9 6.9 0 0 1 6.736 6.889l1.454 42.064a8.3 8.3 0 0 1 -13.946-.526l-1.453-42.065a6.625 6.625 0 0 1 7.209-6.362z" fill="#f2bc89" transform="translate(-189.407 -64.273)"/><path d="m340 262.15c2.876 21.212-1.748 32.185-2.169 48.986-.421 4.023-9.151 4.246-9.573-.079l-1.93-48.976c2.314-9.33 13.726-4.828 13.672.069z" fill="#f2bc89" transform="translate(-189.568 -68.284)"/><path d="m326.279 250.38c-.927-.019-.927 2.082 0 2.063h12.691c.927.019.927-2.082 0-2.063z" fill="#ca9a6d" transform="translate(-189.504 -67.743)"/><path d="m332.356 210.156c5.365.153 10.76 2.833 10.644 5.586l-.326 31.785-19.44-.4-.817-32.112c-.037-2.815 4.46-5.015 9.939-4.859z" fill="#e8b11f" transform="translate(-189.23 -64.273)"/><path d="m336.43 315.8c1.962-1.1 4.065 3.43 4.068 5.837l.013 9.252a.493.493 0 0 1 -.009.116l-31.7.036a51.275 51.275 0 0 1 -.366-6.224c2.913-2.609 14.692-7.9 17.457-9 3.236 4.018 8.909 3.724 10.539-.012z" fill="#141414" transform="translate(-188.024 -73.372)"/><path d="m308.61 330.319c.057.81.121 1.557.2 1.986l31.7-.036a.508.508 0 0 0 .009-.118v-1.833z" fill="#363636" transform="translate(-188.039 -74.64)"/><path d="m327.4 289.641.957 24.262c.421 4.325 9.15 4.1 9.572.079.225-8.955 1.638-16.263 2.479-24.341z" fill="#a3d65c" transform="translate(-189.66 -71.131)"/><path d="m327.4 289.641.114 2.886h12.567c.114-.954.225-1.914.326-2.886z" fill="#82b140" transform="translate(-189.66 -71.131)"/><path d="m324.974 316.095a.685.685 0 0 0 -.521 1.094l2.711 3.751a.685.685 0 1 0 1.135-.768l-.025-.035-2.711-3.751a.685.685 0 0 0 -.589-.291z" fill="#e0d9ab" transform="translate(-189.394 -73.413)"/><path d="m322.574 317.231a.687.687 0 0 0 -.522 1.095l2.711 3.749a.686.686 0 0 0 1.112-.8l-2.711-3.749a.685.685 0 0 0 -.59-.291z" fill="#e0d9ab" transform="translate(-189.187 -73.511)"/><path d="m320.113 318.431a.685.685 0 0 0 -.521 1.094l2.71 3.751a.685.685 0 0 0 1.135-.768.418.418 0 0 0 -.025-.035l-2.711-3.751a.682.682 0 0 0 -.588-.291z" fill="#e0d9ab" transform="translate(-188.975 -73.614)"/><path d="m308.447 326.079c0 .569.025 1.374.038 2.121h17.907c.355.008.648-.46.652-1.046s-.279-1.066-.635-1.075z" fill="#303131" transform="translate(-188.025 -74.274)"/><path d="m338.624 326.079c0 .569.025 1.373.039 2.12h4.445v-2.12h-4.485z" fill="#303131" transform="translate(-190.629 -74.274)"/><path d="m338.694 315.587a.686.686 0 0 0 -.673.457 4.729 4.729 0 0 1 -4.236 3.346 6.755 6.755 0 0 1 -5.629-3.071.685.685 0 0 0 -1.116.8l.02.026a8.136 8.136 0 0 0 6.8 3.617 6.189 6.189 0 0 0 5.442-4.239.684.684 0 0 0 -.611-.933z" fill="#616161" transform="translate(-189.618 -73.369)"/><path d="m364.8 205.118a6.9 6.9 0 0 0 4.366 8.589l39.379 14.861a8.3 8.3 0 0 0 3.972-13.378l-39.379-14.862a6.626 6.626 0 0 0 -8.338 4.79z" fill="#f2bc89" transform="translate(-192.862 -63.398)"/><path d="m404.376 223.032c-3.266 21.156 1.155 32.212 1.266 49.017.348 4.031 9.071 4.414 9.573.1l2.833-48.932c-2.141-9.37-13.636-5.079-13.672-.183z" fill="#f2bc89" transform="translate(-196.197 -64.921)"/><path d="m404.462 212.763c.279-.884 2.27-.21 1.954.662l-4.068 12.021c-.279.884-2.27.21-1.954-.662z" fill="#ca9a6d" transform="translate(-195.954 -64.462)"/><path d="m364.445 205.735c-1.575 5.131-.767 11.1 1.879 11.871l30.212 9.882 5.851-18.543-30.155-11.068c-2.654-.938-6.177 2.618-7.787 7.858z" fill="#e8b11f" transform="translate(-192.787 -63.201)"/><path d="m405.319 276.7c-1.941-1.139-4.127 3.354-4.175 5.761l-.183 9.251a.455.455 0 0 0 .009.116l31.7.62a51.594 51.594 0 0 0 .48-6.217c-2.865-2.663-14.544-8.174-17.288-9.326-3.31 3.958-8.976 3.56-10.538-.206z" fill="#141414" transform="translate(-196.006 -69.998)"/><path d="m432.9 291.724a19.483 19.483 0 0 1 -.24 1.982l-31.7-.62a.511.511 0 0 1 -.009-.118l.03-1.833z" fill="#76787b" transform="translate(-196.006 -71.259)"/><path d="m416.66 250.74-1.4 24.24c-.5 4.316-9.225 3.933-9.572-.1-.059-8.958-1.34-16.291-2.03-24.382z" fill="#a3d65c" transform="translate(-196.239 -67.754)"/><path d="m416.66 250.74-.167 2.883-12.566-.231c-.1-.956-.19-1.918-.273-2.891z" fill="#82b140" transform="translate(-196.239 -67.754)"/><path d="m419.426 277.255a.685.685 0 0 1 .5 1.1l-2.78 3.7a.685.685 0 1 1 -1.12-.79l.026-.033 2.78-3.7a.685.685 0 0 1 .594-.28z" fill="#e0d9ab" transform="translate(-197.295 -70.062)"/><path d="m421.806 278.436a.685.685 0 0 1 .643.726.678.678 0 0 1 -.143.377l-2.779 3.7a.686.686 0 0 1 -1.1-.816l.005-.008 2.78-3.7a.686.686 0 0 1 .6-.28z" fill="#e0d9ab" transform="translate(-197.501 -70.163)"/><path d="m424.244 279.68a.686.686 0 0 1 .5 1.1l-2.78 3.7a.686.686 0 1 1 -1.123-.787c.009-.013.018-.025.028-.037l2.779-3.7a.688.688 0 0 1 .596-.276z" fill="#e0d9ab" transform="translate(-197.711 -70.271)"/><path d="m434.4 287.512c-.015.569-.051 1.373-.078 2.12l-17.9-.33c-.355 0-.64-.471-.634-1.056s.3-1.062.654-1.064h.016l17.943.331z" fill="#606060" transform="translate(-197.286 -70.918)"/><path d="m405.563 286.979c-.015.569-.051 1.373-.078 2.119l-4.445-.081.037-2.12 4.483.082z" fill="#606060" transform="translate(-196.013 -70.894)"/><path d="m404.939 276.475a.687.687 0 0 1 .664.47 4.73 4.73 0 0 0 4.174 3.424 6.755 6.755 0 0 0 5.684-2.968.685.685 0 0 1 1.1.821l-.017.023a8.137 8.137 0 0 1 -6.868 3.491 6.193 6.193 0 0 1 -5.365-4.338.686.686 0 0 1 .63-.922z" fill="#616161" transform="translate(-196.292 -69.994)"/><path d="m318.023 199.048v8.764c0 5.143 3.826 9.283 8.578 9.283h42.063c4.752 0 8.579-4.14 8.579-9.283v-8.764z" fill="#e2ad1f" transform="translate(-188.851 -63.315)"/><path d="m371.454 195.527a1.361 1.361 0 0 1 .932.41c1.133 1.132 4.78 4.889 6.735 7.3a1.356 1.356 0 0 1 -2.073 1.748l-.032-.038c-1.778-2.191-5.485-6.029-6.547-7.091a1.356 1.356 0 0 1 .985-2.327z" fill="#c2910f" transform="translate(-193.34 -63.011)"/><path d="m328.8 201.942a1.35 1.35 0 0 0 -.932.41c-1.133 1.132-4.78 4.889-6.735 7.3a1.356 1.356 0 0 0 2.073 1.748l.032-.039c1.777-2.19 5.485-6.029 6.547-7.091a1.356 1.356 0 0 0 -.985-2.327z" fill="#c2910f" transform="translate(-189.092 -63.564)"/><path d="m347.438 132.32a72.47 72.47 0 0 0 -20.838 3.737c-4.569 1.473-8.578 10.618-8.578 16.413v47.565l59.221-4.961v-42.6c0-5.795-4.083-14.677-8.578-16.413a55.273 55.273 0 0 0 -21.227-3.741z" fill="#a3d65c" transform="translate(-188.851 -57.557)"/><ellipse cx="158.781" cy="80.426" fill="#f2bc89" rx="10.932" ry="6.001"/><path d="m342.606 121.214h14.294v14.986c-4.357 2.45-8.9 3.754-14.294 0z" fill="#dba573" transform="translate(-190.972 -56.6)"/><g transform="translate(179.327 36.787)"><ellipse cx="6.066" cy="6.946" fill="#f2bc89" rx="6.066" ry="6.946"/><path d="m378.354 93.335a4.8 4.8 0 0 1 3.653.736 3.361 3.361 0 0 1 1.205 2.688 6.626 6.626 0 0 1 -3.324 5.485.581.581 0 0 1 -.577-1.01 5.683 5.683 0 0 0 2.738-4.472 2.146 2.146 0 0 0 -.763-1.78 3.676 3.676 0 0 0 -2.791-.494.581.581 0 1 1 -.171-1.149z" fill="#b6885c" transform="translate(-373.338 -90.976)"/></g><g transform="translate(126.103 36.396)"><ellipse cx="6.066" cy="6.946" fill="#f2bc89" rx="6.066" ry="6.946"/><path d="m321.993 92.907a4.8 4.8 0 0 0 -3.653.736 3.356 3.356 0 0 0 -1.2 2.688 6.623 6.623 0 0 0 3.324 5.484.581.581 0 0 0 .577-1.009 5.681 5.681 0 0 1 -2.738-4.473 2.14 2.14 0 0 1 .762-1.779 3.673 3.673 0 0 1 2.791-.494.581.581 0 1 0 .172-1.149z" fill="#b6885c" transform="translate(-314.878 -90.548)"/></g><path d="m343.035 67.987h10.095c10.933 0 19.8 9.1 19.8 20.335v14.578c0 11.232-8.862 20.336-19.8 20.336h-10.095c-10.932 0-19.8-9.1-19.8-20.336v-14.578c.005-11.231 8.865-20.335 19.8-20.335z" fill="#f2bc89" transform="translate(-189.302 -52.008)"/><path d="m365.005 93.1a2.549 2.549 0 0 1 -2.642 2.446 2.55 2.55 0 0 1 -2.643-2.446 2.65 2.65 0 0 1 5.284 0z" transform="translate(-192.449 -53.963)"/><path d="m364.537 92.625a.6.6 0 0 0 -.167-.408 4.282 4.282 0 0 0 -.865-.688.558.558 0 0 0 -.785.188.6.6 0 0 0 .18.813l.019.012a3.209 3.209 0 0 1 .636.5.557.557 0 0 0 .806.02.6.6 0 0 0 .176-.439z" fill="#fff" transform="translate(-192.7 -54.031)"/><path d="m358.865 97.219c2.624-2.335 6.072-3.983 9.219-3.589.141 4.07-7.462 4.27-9.219 3.589z" fill="#f2bc89" transform="translate(-192.375 -54.215)"/><path d="m366.257 93.7h-.032a9.183 9.183 0 0 0 -5.658 2.287.457.457 0 1 0 .558.723.425.425 0 0 0 .038-.033 8.247 8.247 0 0 1 5.1-2.064.457.457 0 0 0 -.005-.914z" fill="#b6885c" transform="translate(-192.506 -54.226)"/><path d="m335.353 93.1a2.549 2.549 0 0 0 2.642 2.446 2.549 2.549 0 0 0 2.642-2.445 2.549 2.549 0 0 0 -2.642-2.445 2.549 2.549 0 0 0 -2.642 2.445z" transform="translate(-190.347 -53.963)"/><path d="m340.365 92.625a.607.607 0 0 0 -.167-.408 4.262 4.262 0 0 0 -.866-.688.557.557 0 0 0 -.784.188.6.6 0 0 0 .18.813l.019.012a3.236 3.236 0 0 1 .636.5.556.556 0 0 0 .8.02.6.6 0 0 0 .177-.439z" fill="#fff" transform="translate(-190.615 -54.031)"/><path d="m341.121 97.219c-2.625-2.335-6.072-3.983-9.219-3.589-.142 4.07 7.461 4.27 9.219 3.589z" fill="#f2bc89" transform="translate(-190.049 -54.215)"/><path d="m334 93.7h.033a9.185 9.185 0 0 1 5.658 2.287.457.457 0 0 1 -.558.723.336.336 0 0 1 -.038-.033 8.249 8.249 0 0 0 -5.1-2.064.457.457 0 0 1 0-.914z" fill="#b6885c" transform="translate(-190.191 -54.226)"/><path d="m369.06 95.4a6.75 6.75 0 1 1 -6.688 6.75 6.719 6.719 0 0 1 6.688-6.75z" fill="url(#h)" transform="translate(-192.678 -54.373)"/><path d="m330.532 95.4a6.75 6.75 0 1 0 6.689 6.75 6.72 6.72 0 0 0 -6.689-6.75z" fill="url(#i)" transform="translate(-189.354 -54.373)"/><path d="m323.378 92.179c-3.936-15.073-7.841-22.219 1.957-34.83 12.683-4.9 27.56-6.636 39.722-6.849l-2.544 6.653c3.85-3.123 8.622-3.946 13.5-4.5l-6.653 6.457c3.9-1.778 11.212-.279 12.524 1.565-3.587-.116-5.6.6-7.436 3.522 2.427 8.993-.66 18.254-1.37 27.394l-2.153.2-.782-10.566-5.283-9-15.26 2.929-17.025-2.739-6.653 8.415-.391 12.132z" fill="#dd9f35" transform="translate(-188.951 -50.499)"/><path d="m350.333 74.474c-5.951-1.234-12.25-3.928-17.754-4.289-2.685 3.868-5.121 7.856-7.716 11.476-.009 4.348-.872 8.584-.917 12.271l2 .726.391-12.132 6.654-8.415 17.024 2.739 15.263-2.935 5.283 9 .782 10.566 1.16-.105a80.272 80.272 0 0 0 -.441-11.673l-.026-.194-.068-.181c-1.591-3.879-4.122-6.758-5.79-10.264-5.554-.04-11.022 1.99-15.839 3.405z" fill="#ca892c" transform="translate(-189.362 -52.197)"/><path d="m360.317 52.458a89.035 89.035 0 0 0 -11.717 1.163.457.457 0 0 0 .143.9l.04-.008a89.483 89.483 0 0 1 11.582-1.144.457.457 0 1 0 -.043-.914zm-.917 1.842h-.032a79.13 79.13 0 0 1 -7.915.575.457.457 0 1 0 0 .914h.006a80.043 80.043 0 0 0 8.006-.58.457.457 0 0 0 -.069-.912zm-14.854.7a.45.45 0 0 0 -.079.009c-2.422.359-4.839.723-7.26 1.037a.457.457 0 0 0 .118.906c2.433-.316 4.856-.68 7.276-1.039a.457.457 0 0 0 -.056-.91zm.315 1.615h-.03c-2.016.224-4 .543-5.984.69a.457.457 0 0 0 .059.913h.009c2.037-.151 4.029-.473 6.016-.694a.457.457 0 0 0 -.069-.912zm-10.922.46a.457.457 0 0 0 -.122.016c-3.08.711-1.01.226-6.237 1.5a.457.457 0 1 0 .187.895l.03-.007c5.23-1.276 3.143-.788 6.225-1.5a.457.457 0 0 0 -.084-.9zm24.43.348c-1.852.047-3.694.132-5.523.116a.457.457 0 0 0 -.019.914h.009c1.863.016 3.713-.07 5.553-.116a.457.457 0 1 0 -.017-.914zm-8.279.461a.45.45 0 0 0 -.079.009c-2.864.382-5.643.452-8.628.689a.457.457 0 0 0 .072.912c2.956-.235 5.752-.306 8.678-.7a.457.457 0 0 0 -.043-.911zm13.683 1.039a.457.457 0 0 0 -.077.9c1.422.343 2.472.505 3.352.762a6.109 6.109 0 0 1 2.457 1.333.457.457 0 0 0 .6-.692 7.161 7.161 0 0 0 -2.8-1.518c-.965-.281-2.008-.44-3.395-.772a.448.448 0 0 0 -.135-.013zm-29.375.23a.45.45 0 0 0 -.079.009 56.274 56.274 0 0 0 -5.582 1.047.457.457 0 1 0 .207.89 55.22 55.22 0 0 1 5.493-1.032.457.457 0 0 0 -.045-.91zm27.648.232c-3 .166-5.92.622-8.868.693a.457.457 0 0 0 .021.914c3.026-.072 5.955-.529 8.9-.693a.458.458 0 1 0 -.052-.914zm-12.219.693c-2.769.1-5.317.319-8.065.346a.457.457 0 0 0 0 .914h.009c2.791-.027 5.35-.252 8.087-.346a.457.457 0 1 0 -.028-.914zm-24.567.8a.457.457 0 0 0 -.344.171c-1.189 1.446-1.974 3.016-3.013 4.4a.457.457 0 0 0 .7.585.362.362 0 0 0 .027-.037c1.1-1.469 1.881-3.024 2.988-4.369a.457.457 0 0 0 -.361-.751zm37.5 0a.457.457 0 0 0 -.084.906c2.289.447 4.519 1.06 6.765 1.721a.457.457 0 0 0 .291-.867l-.033-.009c-2.257-.664-4.515-1.287-6.847-1.742a.516.516 0 0 0 -.091-.009zm-25.936.346a.36.36 0 0 0 -.077 0c-2.156.27-4.327.527-6.488.927a.457.457 0 1 0 .134.9l.034-.005c2.122-.394 4.273-.65 6.434-.919a.457.457 0 0 0 -.036-.91zm-10.964 1.261a.457.457 0 0 0 -.446.307 11.446 11.446 0 0 1 -2.23 3.445.457.457 0 1 0 .685.6l.021-.026a12.268 12.268 0 0 0 2.383-3.711.457.457 0 0 0 -.265-.589.45.45 0 0 0 -.148-.03zm26.612.009a.457.457 0 0 0 0 .912c2.94.145 5.871.116 8.791.116a.457.457 0 1 0 .014-.914h-.014c-2.926 0-5.842.028-8.746-.114zm-3.8.114a51.5 51.5 0 0 0 -6.518.7.457.457 0 0 0 .135.9h.016a50.448 50.448 0 0 1 6.4-.687.457.457 0 1 0 -.037-.914zm14.072.228a.457.457 0 0 0 -.177.871 27.3 27.3 0 0 0 5.044 1.53.457.457 0 1 0 .287-.867.5.5 0 0 0 -.053-.015 27.565 27.565 0 0 1 -4.879-1.47.455.455 0 0 0 -.221-.048zm-24.532.232a.449.449 0 0 0 -.079.009 59.247 59.247 0 0 0 -6.834 1.043.457.457 0 1 0 .127.9.3.3 0 0 0 .039-.007 58.457 58.457 0 0 1 6.782-1.033.457.457 0 0 0 -.036-.912zm-11.218.919a.458.458 0 0 0 -.416.286c-.7 1.667-1.86 3.057-2.651 4.836a.457.457 0 0 0 .832.378v-.007c.725-1.63 1.892-3.028 2.657-4.855a.456.456 0 0 0 -.237-.6.463.463 0 0 0 -.187-.037zm44.2.461a.457.457 0 0 0 -.468.446.477.477 0 0 0 .032.179c.721 1.906 1.712 3.693 2.552 5.457a.457.457 0 1 0 .839-.363l-.015-.029c-.856-1.8-1.834-3.565-2.523-5.388a.459.459 0 0 0 -.411-.301zm-8.478.238a.457.457 0 0 0 0 .912 14.563 14.563 0 0 1 3.353 1.013.457.457 0 1 0 .334-.85l-.027-.01a14.668 14.668 0 0 0 -3.569-1.064.382.382 0 0 0 -.091 0zm-22.2.114a.472.472 0 0 0 -.079.009c-2.664.333-5.326.706-7.979 1.156a.457.457 0 1 0 .1.909.544.544 0 0 0 .056-.009c2.635-.447 5.286-.818 7.941-1.149a.457.457 0 0 0 -.036-.912zm17.645.23a.45.45 0 0 0 -.079.009 35.837 35.837 0 0 1 -6.387.343.457.457 0 0 0 -.022.914 36.907 36.907 0 0 0 6.535-.352.457.457 0 0 0 -.052-.91zm-29.648.573a.456.456 0 0 0 -.382.187 44.65 44.65 0 0 0 -2.681 4.54.457.457 0 1 0 .768.5l.016-.026a46.526 46.526 0 0 1 2.627-4.46.456.456 0 0 0 -.081-.641.449.449 0 0 0 -.267-.1zm20.866.009c-1.843 0-2.979.559-4.858.126a.457.457 0 0 0 -.2.891c2.12.488 3.422-.1 5.063-.1a.457.457 0 0 0 .013-.914zm19.93.341a.456.456 0 0 0 -.362.7 48.768 48.768 0 0 1 2.855 6.171.457.457 0 1 0 .853-.329l-.01-.024a48.927 48.927 0 0 0 -2.915-6.289.456.456 0 0 0 -.421-.227zm-10.709.581a.519.519 0 0 0 -.077.009c-2.083.4-4.225.863-6.321 1.149a.457.457 0 1 0 .09.909h.033c2.145-.293 4.3-.763 6.37-1.157a.457.457 0 0 0 -.1-.906zm-18.245.466a29.087 29.087 0 0 0 -5.859.707.457.457 0 0 0 .2.891l.029-.007a28.646 28.646 0 0 1 5.678-.679.457.457 0 1 0 -.024-.913h-.027zm-10.586.225a.46.46 0 0 0 -.376.2c-.937 1.337-1.75 2.683-2.559 4.071a.457.457 0 1 0 .79.461c.8-1.38 1.6-2.7 2.516-4.007a.457.457 0 0 0 -.371-.725zm38.759.114a.458.458 0 0 0 -.453.461.441.441 0 0 0 .021.133c.62 2.071 1.589 3.974 2.316 5.914a.457.457 0 1 0 .859-.315v-.005c-.752-2-1.71-3.89-2.3-5.855a.458.458 0 0 0 -.444-.336zm-1.616.232a.458.458 0 0 0 -.454.46.464.464 0 0 0 .057.217 50.762 50.762 0 0 1 2.743 6.519.457.457 0 0 0 .867-.288l-.009-.024a51.107 51.107 0 0 0 -2.8-6.635.454.454 0 0 0 -.408-.249zm-22.383.927a.457.457 0 0 0 -.208.862 23.605 23.605 0 0 0 5.641 1.771.457.457 0 0 0 .27-.873.5.5 0 0 0 -.049-.013 23.362 23.362 0 0 1 -5.435-1.691.437.437 0 0 0 -.219-.056zm12.933.346a.449.449 0 0 0 -.121.018c-1.647.433-3.3.866-4.954 1.267a.457.457 0 1 0 .175.9.286.286 0 0 0 .04-.01c1.662-.4 3.322-.837 4.971-1.27a.457.457 0 0 0 -.111-.9zm-35.892 1.725a.457.457 0 0 0 -.416.283 14.211 14.211 0 0 0 -.957 4.276.457.457 0 0 0 .9.134v-.022a13.213 13.213 0 0 1 .89-4.031.456.456 0 0 0 -.425-.641zm1.14 1.731a.456.456 0 0 0 -.408.3 30.7 30.7 0 0 0 -.822 3.166.457.457 0 1 0 .873.27c0-.014.007-.026.01-.04.267-1.028.494-2.3.793-3.066a.458.458 0 0 0 -.254-.595.472.472 0 0 0 -.191-.032zm2.554.461a.454.454 0 0 0 -.4.243c-.595 1.078-1.04 2.19-1.517 3.266a.457.457 0 0 0 .829.385l.005-.014c.487-1.1.925-2.182 1.484-3.2a.457.457 0 0 0 -.171-.623.45.45 0 0 0 -.233-.06zm47.636 1.615a.456.456 0 0 0 -.445.468.505.505 0 0 0 .011.09l.683 3.183v.3a.457.457 0 1 0 .914.014.035.035 0 0 0 0-.014v-.347a.432.432 0 0 0 -.011-.1l-.692-3.23a.457.457 0 0 0 -.461-.367zm-1.365 1.152a.458.458 0 0 0 -.463.451.486.486 0 0 0 .008.09c.21 1.228.424 2.368.573 3.557a.457.457 0 1 0 .907-.1v-.01c-.154-1.225-.372-2.378-.58-3.6a.457.457 0 0 0 -.444-.387zm-49.763 2.194a.456.456 0 0 0 -.427.485 14.414 14.414 0 0 0 .47 4.1.457.457 0 0 0 .9-.178c-.045-.222-.009-.188-.041-.354a.457.457 0 0 0 .741-.364v-2.54a.457.457 0 1 0 -.914-.013.029.029 0 0 0 0 .013v1.382a12.141 12.141 0 0 1 -.239-2.1.457.457 0 0 0 -.472-.441z" fill="#cf8f2f" transform="translate(-189.039 -50.668)"/><path d="m369.193 59.622a2.285 2.285 0 0 0 -2.215 1.74 2.285 2.285 0 0 0 -.444 3.721c1.837 1.678 3.575 3.31 5.26 5.1a2.285 2.285 0 0 0 3.228.143 2.241 2.241 0 0 0 .213-.224 2.284 2.284 0 0 0 1.47-3.915l-5.873-5.874a2.283 2.283 0 0 0 -1.64-.691z" fill="#e7b256" transform="translate(-192.971 -51.286)"/><path d="m358.847 54.083a2.283 2.283 0 0 0 -1.918.924 42.9 42.9 0 0 0 -4.364 6.212 2.285 2.285 0 1 0 3.824 2.5c.017-.026.035-.053.051-.08a37.635 37.635 0 0 1 4.122-5.862 2.284 2.284 0 0 0 -1.715-3.694z" fill="#e7b256" transform="translate(-191.799 -50.808)"/><path d="m338.036 108.987c8.393 4.292 16.151 4.285 22.646 0-1.302 15.488-22.316 12.882-22.646 0z" fill="#d58f6d" transform="translate(-190.578 -55.545)"/><path d="m338.829 107.174a.455.455 0 0 0 -.4.3 2.556 2.556 0 0 1 -.633 1.069 3.26 3.26 0 0 1 -1.267.615.457.457 0 0 0 .242.882l.027-.009a4.107 4.107 0 0 0 1.612-.811 3.479 3.479 0 0 0 .874-1.426.458.458 0 0 0 -.259-.592.452.452 0 0 0 -.196-.028z" fill="#b6885c" transform="translate(-190.419 -55.388)"/><path d="m361.671 107.174a.454.454 0 0 1 .4.3 2.566 2.566 0 0 0 .634 1.069 3.254 3.254 0 0 0 1.266.615.457.457 0 1 1 -.242.881l-.027-.008a4.11 4.11 0 0 1 -1.611-.811 3.48 3.48 0 0 1 -.874-1.426.457.457 0 0 1 .259-.592.448.448 0 0 1 .195-.028z" fill="#b6885c" transform="translate(-192.575 -55.388)"/><path d="m345.894 122.615a.457.457 0 0 0 -.21.85 8.789 8.789 0 0 0 8.621.009.457.457 0 1 0 -.447-.8h-.008a7.993 7.993 0 0 1 -7.694.009.454.454 0 0 0 -.261-.068z" fill="#b6885c" transform="translate(-191.219 -56.721)"/><path d="m345.743 102.921a.914.914 0 1 0 -.026 1.827h8.428a.914.914 0 1 0 .026-1.827h-8.427z" fill="#b6885c" transform="translate(-191.163 -55.022)"/><path d="m355.612 86.273a.467.467 0 0 0 -.359.2c-3.838 4.159-1.449 8.288-.382 13.2.115.529 1.013.376.9-.154-1.232-5.651-2.129-7.705.27-12.632a.41.41 0 0 0 -.427-.614z" fill="#b6885c" transform="translate(-191.882 -53.585)"/><path d="m337.637 80.974a12.97 12.97 0 0 0 -5.677.691 1.356 1.356 0 0 0 -.865 1.752 1.446 1.446 0 0 0 1.827.83l.028-.01a9.642 9.642 0 0 1 7.854.537 1.466 1.466 0 0 0 1.973-.423 1.338 1.338 0 0 0 -.441-1.891c-.026-.016-.054-.032-.081-.047a11.938 11.938 0 0 0 -4.618-1.439z" fill="#ca892c" transform="translate(-189.972 -53.122)"/><path d="m362.088 80.974a12.966 12.966 0 0 1 5.676.691 1.356 1.356 0 0 1 .865 1.752 1.445 1.445 0 0 1 -1.827.83l-.028-.01a9.642 9.642 0 0 0 -7.854.537 1.465 1.465 0 0 1 -1.972-.423 1.337 1.337 0 0 1 .44-1.891c.027-.016.054-.032.082-.047a11.933 11.933 0 0 1 4.618-1.439z" fill="#ca892c" transform="translate(-192.19 -53.122)"/><path d="m340.156 109.986-.041.118c.625 5.5 19.3 4.872 18.867.057-5.57 2.877-11.962 2.825-18.826-.175z" fill="#fff" transform="translate(-190.757 -55.631)"/><path d="m318.022 201.166v4.383l59.221-4.962v-4.387z" fill="#9ccb5b" transform="translate(-188.851 -63.069)"/><g fill="#fff"><path d="m325.682 241.678h1.618v-4.965l.174-.854-.556.741-1.033.768-.639-.943 2.647-2.314h.847v7.568h1.578v1.383h-4.631z" transform="translate(-189.474 -66.339)"/><path d="m332.877 241.678h1.613v-4.965l.175-.854-.557.741-1.033.768-.639-.943 2.646-2.314h.847v7.568h1.579v1.383h-4.631z" transform="translate(-190.095 -66.339)"/><path d="m290.081 623.036v7.864h-.4l-1.178-1.178-1.977-1.977-1.142-1.142-1.668-1.668v-1.946h.414l4.282 4.282v-4.239zm-6.364 3.548 1.668 1.668v2.642h-1.668z" transform="translate(-143.787 -516.444)"/><path d="m502.093 627.453h6.317v1.668h-4.649v3.355h-1.668v-3.355zm0-1.163v-1.668h7.018v1.668z" transform="translate(-354.614 -518.017)"/><path d="m731.958 629.322a3.913 3.913 0 1 1 -3.913-3.913 3.918 3.918 0 0 1 3.913 3.913zm-3.913-2.28a2.28 2.28 0 1 0 2.28 2.28 2.282 2.282 0 0 0 -2.28-2.28z" transform="translate(-568.978 -518.776)"/><path d="m1208.774 626.32h-4.094v-1.668h7.377l-.363.5-.761 1.043-2.54 3.481h-2.065zm-1.231 4.517h4.211v1.663h-7.074v-.574l.06-.082.644-.883.094-.129h2.065z" transform="translate(-1032.914 -518.046)"/><path d="m776.642 737.117a2.132 2.132 0 0 1 -.04.258v.011q-.013.056-.028.112v.014c-.011.039-.023.078-.037.116a2.14 2.14 0 0 1 -.1.236q-.027.055-.057.107v.008c-.02.036-.041.07-.063.1l-.739.118-.366-.489.2-.795h-1.69l.2.8-.363.49-.742-.119q-.033-.051-.063-.1v-.009q-.03-.053-.057-.107a2.14 2.14 0 0 1 -.1-.236c-.013-.038-.026-.077-.037-.116v-.014q-.015-.055-.028-.112v-.011a2.137 2.137 0 0 1 -.04-.257l.163-.2h-.323a2.248 2.248 0 1 0 4.5 0h-.322zm-1.59 1.868c-.037.009-.076.018-.114.025h-.016l-.1.015h-.026l-.093.009h-.029c-.04 0-.08 0-.121 0h-.11-.013l-.1-.008a2.13 2.13 0 0 1 -.211-.034l-.443-.7.357-.483h1.044l.363.486z" transform="translate(-615.486 -626.431)"/><path d="m961.734 629.322a3.913 3.913 0 1 1 3.913 3.913 3.918 3.918 0 0 1 -3.913-3.913zm3.913 2.28a2.28 2.28 0 1 0 -2.28-2.28 2.282 2.282 0 0 0 2.28 2.278z" transform="translate(-798.367 -518.776)"/><ellipse cx="167.281" cy="109.586" rx=".218" ry=".215"/><path d="m1085.788 679.883a2.78 2.78 0 0 1 .731.185 2.82 2.82 0 0 1 1 .682l.032.034a2.214 2.214 0 0 0 -1.4-1.879l-.063.129a6.189 6.189 0 0 1 -.384.677.471.471 0 0 1 .084.172z" transform="translate(-918.046 -570.422)"/><path d="m1058.925 675.256a.481.481 0 0 1 .317 0 5.963 5.963 0 0 0 .362-.64l.048-.1a2.25 2.25 0 0 0 -1.136 0l.048.1a5.9 5.9 0 0 0 .361.64z" transform="translate(-891.802 -566.117)"/><path d="m1014.168 714.912a.47.47 0 0 1 -.084-.159 2.548 2.548 0 0 0 -1.539.783l-.164.173h1.349a6.108 6.108 0 0 1 .438-.797z" transform="translate(-847.262 -605.032)"/><path d="m1087.405 715.536a2.547 2.547 0 0 0 -1.54-.783.471.471 0 0 1 -.084.159 6.094 6.094 0 0 1 .439.8h1.349z" transform="translate(-918.127 -605.032)"/><path d="m1011.733 680.068a2.778 2.778 0 0 1 .731-.185.47.47 0 0 1 .09-.173 6.167 6.167 0 0 1 -.384-.677l-.063-.129a2.214 2.214 0 0 0 -1.4 1.879l.032-.034a2.82 2.82 0 0 1 .994-.681z" transform="translate(-845.645 -570.423)"/><path d="m1060.412 723.747a.483.483 0 0 1 -.325 0 5.85 5.85 0 0 0 -.363.645h1.052a5.87 5.87 0 0 0 -.364-.645z" transform="translate(-892.968 -613.715)"/><path d="m165.662 94.699h1.476v1.476h-1.476z"/><path d="m143.039 96.754h1.435v1.449h-1.435z"/><path d="m264.808 402.417a3.9 3.9 0 0 1 -3.9 3.9v1.435a5.338 5.338 0 0 0 5.332-5.332v-1.742h-1.435z" transform="translate(-121.769 -301.812)"/><path d="m176.31 96.744h1.476v1.459h-1.476z"/><path d="m496.842 344.971h-7.059a3.541 3.541 0 1 0 -5.7 0h-10.895a3.541 3.541 0 1 0 -2.962 1.445l-1.509 2.151h1.8l1.589-2.149h24.738 1.476v-4.967h-1.476zm-9.91-4.176a2.082 2.082 0 1 1 -2.082 2.082 2.082 2.082 0 0 1 2.083-2.082zm-16.6 4.165a2.082 2.082 0 1 1 2.082-2.082 2.082 2.082 0 0 1 -2.082 2.082z" transform="translate(-320.532 -242.592)"/></g></svg>